<?xml version="1.0" standalone="no"?>
<!DOCTYPE svg PUBLIC "-//W3C//DTD SVG 1.1//EN" "http://www.w3.org/Graphics/SVG/1.1/DTD/svg11.dtd" >
<svg xmlns="http://www.w3.org/2000/svg">
<metadata></metadata>
<defs>
<font id="monofettregular" horiz-adv-x="1184" >
<font-face units-per-em="2048" ascent="1638" descent="-410" />
<missing-glyph horiz-adv-x="295" />
<glyph horiz-adv-x="2048" />
<glyph horiz-adv-x="2048" />
<glyph unicode="&#xd;" horiz-adv-x="295" />
<glyph unicode=" "  horiz-adv-x="295" />
<glyph unicode="&#x09;" horiz-adv-x="295" />
<glyph unicode="&#xa0;" horiz-adv-x="295" />
<glyph unicode="!" horiz-adv-x="869" d="M-4 381v608q0 78 31 147.5t88.5 121.5t139.5 82t183 30q99 -2 179.5 -32.5t137.5 -82t87.5 -120t30.5 -146.5v-608q0 -78 -31 -147.5t-89 -121.5t-139.5 -82t-183.5 -30q-100 0 -180 30.5t-136.5 83t-87 121.5t-30.5 146zM371 1280l41 -653h59l41 653h-141zM389 438h123 l-16 107h-107v-107z" />
<glyph unicode="&#x22;" horiz-adv-x="869" d="M-4 381v608q0 78 31 147.5t88.5 121.5t139.5 82t183 30q99 -2 179.5 -32.5t137.5 -82t87.5 -120t30.5 -146.5v-608q0 -78 -31 -147.5t-89 -121.5t-139.5 -82t-183.5 -30q-100 0 -180 30.5t-136.5 83t-87 121.5t-30.5 146zM324 1024h100v256h-100v-256zM473 1024h101v256 h-101v-256z" />
<glyph unicode="#" horiz-adv-x="989" d="M-4 381v608q0 78 31 147.5t88.5 121.5t139.5 82t183 30h113q101 0 183 -30t139.5 -82t88.5 -121.5t31 -147.5v-608q0 -78 -31 -147.5t-88.5 -121.5t-139.5 -82t-183 -30h-113q-101 0 -183 30t-139.5 82t-88.5 121.5t-31 147.5zM260 623h66l-13 -129h105l14 129h90 l-12 -129h104l15 129h63l11 106h-64l23 221h65l10 105h-63l12 129h-104l-15 -129h-90l15 129h-107l-14 -129h-66l-10 -105h66l-23 -221h-66zM442 729l25 221h90l-22 -221h-93z" />
<glyph unicode="$" d="M-4 381v608q0 78 31 147.5t88.5 121.5t139.5 82t183 30h308q101 0 183 -30t139.5 -82t88.5 -121.5t31 -147.5v-608q0 -78 -31 -147.5t-88.5 -121.5t-139.5 -82t-183 -30h-308q-101 0 -183 30t-139.5 82t-88.5 121.5t-31 147.5zM311 637l19 -109l63 -63l103 -12h69v-119 h82v119h58l102 12l63 63l15 86v103l-15 86l-63 63l-104 11h-56v215h62l61 -13l19 -75l104 10l-16 106l-66 64l-100 14h-64v82h-82v-82h-71l-101 -14l-65 -64l-13 -84v-104l13 -84l65 -64l101 -12h71v-213h-67l-62 10l-16 78zM420 948v72l14 59l66 13h65v-215h-69l-62 12 q-5 17 -7 30.5t-7 28.5zM647 559v213h56l61 -10q3 -16 7 -28.5t7 -26.5v-82q-2 -13 -6.5 -28t-7.5 -28l-66 -10h-51z" />
<glyph unicode="%" d="M-4 381v608q0 78 31 147.5t88.5 121.5t139.5 82t183 30h308q101 0 183 -30t139.5 -82t88.5 -121.5t31 -147.5v-608q0 -78 -31 -147.5t-88.5 -121.5t-139.5 -82t-183 -30h-308q-101 0 -183 30t-139.5 82t-88.5 121.5t-31 147.5zM180 1024l9 -57l63 -64l74 -10h45l67 14 l66 58l10 59v72l-8 57l-61 64l-76 10h-43l-70 -15l-65 -57l-11 -59v-72zM285 1038v43l10 33q12 3 20 4t19 4h29l36 -8l11 -33v-43l-11 -32l-36 -9h-31l-37 9zM445 518l100 -24l211 706l-103 31zM694 625l11 -60l65 -57l68 -14h45l74 10l63 63l10 58v71l-12 60l-66 57l-69 14 h-43l-74 -10l-63 -63l-9 -58v-71zM799 639v43l10 33l37 8h29l39 -8l10 -33v-43l-10 -33l-37 -8h-31l-37 8z" />
<glyph unicode="&#x26;" d="M-4 381v608q0 78 31 147.5t88.5 121.5t139.5 82t183 30h308q101 0 183 -30t139.5 -82t88.5 -121.5t31 -147.5v-608q0 -78 -31 -147.5t-88.5 -121.5t-139.5 -82t-183 -30h-308q-101 0 -183 30t-139.5 82t-88.5 121.5t-31 147.5zM369 614l14 -86l66 -63l100 -12h178l103 12 l63 63l14 86v207l84 107h-84v98h-106v-98h-246l-65 10l-15 59v111l10 55l70 11h166l70 -11l39 103l-103 14h-178l-102 -14l-64 -64l-14 -84v-137l35 -63l65 -44l-65 -45l-35 -63v-152zM475 629v127l10 55l70 10h246v-196l-14 -56l-66 -10h-166l-65 10z" />
<glyph unicode="'" horiz-adv-x="869" d="M-4 381v608q0 78 31 147.5t88.5 121.5t139.5 82t183 30q99 -2 179.5 -32.5t137.5 -82t87.5 -120t30.5 -146.5v-608q0 -78 -31 -147.5t-89 -121.5t-139.5 -82t-183.5 -30q-100 0 -180 30.5t-136.5 83t-87 121.5t-30.5 146zM391 1024h101v256h-101v-256z" />
<glyph unicode="(" horiz-adv-x="991" d="M-4 381v608q0 78 31 147.5t88.5 121.5t139.5 82t183 30h115q101 0 183 -30t139.5 -82t88.5 -121.5t31 -147.5v-608q0 -78 -31 -147.5t-88.5 -121.5t-139.5 -82t-183 -30h-115q-101 0 -183 30t-139.5 82t-88.5 121.5t-31 147.5zM332 485l12 -86l66 -63l100 -12h123v106 h-117l-65 10l-15 60v606q5 15 7.5 29.5t7.5 29.5l65 11h117v106h-123l-100 -12l-66 -66l-12 -84v-635z" />
<glyph unicode=")" horiz-adv-x="991" d="M-4 381v608q0 78 31 147.5t88.5 121.5t139.5 82t183 30h115q101 0 183 -30t139.5 -82t88.5 -121.5t31 -147.5v-608q0 -78 -31 -147.5t-88.5 -121.5t-139.5 -82t-183 -30h-115q-101 0 -183 30t-139.5 82t-88.5 121.5t-31 147.5zM358 324h123l100 12l66 63l12 86v635 l-12 84l-66 66l-100 12h-123v-106h117l65 -11q5 -15 7.5 -29.5t7.5 -29.5v-606l-15 -60l-65 -10h-117v-106z" />
<glyph unicode="*" horiz-adv-x="877" d="M-4 381v608q0 78 31 147.5t88.5 121.5t139.5 82t183 30q102 0 183.5 -30t139.5 -82t89 -121.5t31 -147.5v-608q0 -78 -31 -147.5t-89 -121.5t-139.5 -82t-183.5 -30q-101 0 -183 30t-139.5 82t-88.5 121.5t-31 147.5zM234 989h151l-80 -133l94 -53q17 29 39.5 65t40.5 68 l82 -133l92 53l-77 133h151v107h-153l79 133l-92 53l-82 -133l-80 133l-94 -53l78 -133h-149v-107z" />
<glyph unicode="+" horiz-adv-x="877" d="M-4 381v608q0 78 31 147.5t88.5 121.5t139.5 82t183 30q102 0 183.5 -30t139.5 -82t89 -121.5t31 -147.5v-608q0 -78 -31 -147.5t-89 -121.5t-139.5 -82t-183.5 -30q-101 0 -183 30t-139.5 82t-88.5 121.5t-31 147.5zM199 979h194v-195h105v195h196v106h-196v197h-105 v-197h-194v-106z" />
<glyph unicode="," horiz-adv-x="877" d="M-4 381v608q0 78 31 147.5t88.5 121.5t139.5 82t183 30q102 0 183.5 -30t139.5 -82t89 -121.5t31 -147.5v-608q0 -78 -31 -147.5t-89 -121.5t-139.5 -82t-183.5 -30q-101 0 -183 30t-139.5 82t-88.5 121.5t-31 147.5zM373 453h65l-39 -101l64 -28l61 129v129h-151v-129z " />
<glyph unicode="-" horiz-adv-x="877" d="M-4 381v608q0 78 31 147.5t88.5 121.5t139.5 82t183 30q102 0 183.5 -30t139.5 -82t89 -121.5t31 -147.5v-608q0 -78 -31 -147.5t-89 -121.5t-139.5 -82t-183.5 -30q-101 0 -183 30t-139.5 82t-88.5 121.5t-31 147.5zM250 918h377v108h-377v-108z" />
<glyph unicode="." horiz-adv-x="877" d="M-4 381v608q0 78 31 147.5t88.5 121.5t139.5 82t183 30q102 0 183.5 -30t139.5 -82t89 -121.5t31 -147.5v-608q0 -78 -31 -147.5t-89 -121.5t-139.5 -82t-183.5 -30q-101 0 -183 30t-139.5 82t-88.5 121.5t-31 147.5zM373 453h131v129h-131v-129z" />
<glyph unicode="/" horiz-adv-x="877" d="M-4 381v608q0 78 31 147.5t88.5 121.5t139.5 82t183 30q102 0 183.5 -30t139.5 -82t89 -121.5t31 -147.5v-608q0 -78 -31 -147.5t-89 -121.5t-139.5 -82t-183.5 -30q-101 0 -183 30t-139.5 82t-88.5 121.5t-31 147.5zM315 426h109l137 823h-108z" />
<glyph unicode="0" d="M-4 381v608q0 78 31 147.5t88.5 121.5t139.5 82t183 30h308q101 0 183 -30t139.5 -82t88.5 -121.5t31 -147.5v-608q0 -78 -31 -147.5t-88.5 -121.5t-139.5 -82t-183 -30h-308q-101 0 -183 30t-139.5 82t-88.5 121.5t-31 147.5zM320 614l12 -86l65 -63l101 -12h268l102 12 l64 63l14 86v504l-14 84l-64 64l-102 14h-268l-103 -14l-63 -64l-12 -84v-504zM424 629v479l10 55l70 11h256l70 -11l10 -59v-479l-15 -56l-65 -10h-256l-66 10z" />
<glyph unicode="1" d="M-4 381v608q0 78 31 147.5t88.5 121.5t139.5 82t183 30h308q101 0 183 -30t139.5 -82t88.5 -121.5t31 -147.5v-608q0 -78 -31 -147.5t-88.5 -121.5t-139.5 -82t-183 -30h-308q-101 0 -183 30t-139.5 82t-88.5 121.5t-31 147.5zM438 1124l129 45v-714h107v827h-90 l-146 -51v-107z" />
<glyph unicode="2" d="M-4 381v608q0 78 31 147.5t88.5 121.5t139.5 82t183 30h308q101 0 183 -30t139.5 -82t88.5 -121.5t31 -147.5v-608q0 -78 -31 -147.5t-88.5 -121.5t-139.5 -82t-183 -30h-308q-101 0 -183 30t-139.5 82t-88.5 121.5t-31 147.5zM318 1096l106 -11l12 78l70 11h229l70 -11 l10 -59v-125q-5 -16 -7 -30t-7 -29l-66 -17h-239l-117 -33l-45 -45l-12 -84v-225l63 -63h502v104h-461v172q3 12 4 27.5t4 29.5l72 17h240l116 33l45 43l15 86v153l-15 84l-63 64l-103 14h-241l-103 -14l-63 -64z" />
<glyph unicode="3" d="M-4 381v608q0 78 31 147.5t88.5 121.5t139.5 82t183 30h308q101 0 183 -30t139.5 -82t88.5 -121.5t31 -147.5v-608q0 -78 -31 -147.5t-88.5 -121.5t-139.5 -82t-183 -30h-308q-101 0 -183 30t-139.5 82t-88.5 121.5t-31 147.5zM281 635l18 -109l64 -63l102 -12h266 l103 12l63 63l14 86v150l-14 84q-5 3 -12 10l-12 12l24 25l14 84v139l-14 84l-63 64l-103 14h-266l-102 -14l-64 -64l-18 -106l108 -11l13 78l69 10h254l70 -10l10 -59v-121q-2 -12 -6.5 -27.5t-7.5 -27.5l-66 -11h-278v-94h280l68 -8l10 -59v-131q-2 -13 -6.5 -28t-7.5 -28 l-66 -10h-258l-61 10l-17 78z" />
<glyph unicode="4" d="M-4 381v608q0 78 31 147.5t88.5 121.5t139.5 82t183 30h308q101 0 183 -30t139.5 -82t88.5 -121.5t31 -147.5v-608q0 -78 -31 -147.5t-88.5 -121.5t-139.5 -82t-183 -30h-308q-101 0 -183 30t-139.5 82t-88.5 121.5t-31 147.5zM361 807l14 -84l63 -64l103 -12h170v-194 h106v194h154v107h-154v526h-106v-528h-164l-70 10l-10 59v459h-106v-473z" />
<glyph unicode="5" d="M-4 381v608q0 78 31 147.5t88.5 121.5t139.5 82t183 30h308q101 0 183 -30t139.5 -82t88.5 -121.5t31 -147.5v-608q0 -78 -31 -147.5t-88.5 -121.5t-139.5 -82t-183 -30h-308q-101 0 -183 30t-139.5 82t-88.5 121.5t-31 147.5zM326 604l22 -78l64 -61l100 -12h246l100 12 l64 63l14 84v185l-14 84l-64 63l-100 14h-246l-74 -12v230h457v104h-500l-63 -63v-377h102l84 12h234l67 -10l11 -60v-159q-2 -13 -7 -27t-8 -27l-59 -12h-242l-63 12l-11 47z" />
<glyph unicode="6" d="M-4 381v608q0 78 31 147.5t88.5 121.5t139.5 82t183 30h308q101 0 183 -30t139.5 -82t88.5 -121.5t31 -147.5v-608q0 -78 -31 -147.5t-88.5 -121.5t-139.5 -82t-183 -30h-308q-101 0 -183 30t-139.5 82t-88.5 121.5t-31 147.5zM332 612l14 -84l64 -63l102 -12h268l101 12 l65 63l15 84v187l-15 84l-63 63l-103 15h-268l-74 -13v160l11 55h67h258l105 -12l20 104l-117 25h-270l-102 -14l-64 -64l-14 -84v-506zM438 629v159l11 56l69 10h256l70 -10l10 -60v-155l-14 -60l-66 -12h-260l-61 12q-2 12 -7.5 31.5t-7.5 28.5z" />
<glyph unicode="7" d="M-4 381v608q0 78 31 147.5t88.5 121.5t139.5 82t183 30h308q101 0 183 -30t139.5 -82t88.5 -121.5t31 -147.5v-608q0 -78 -31 -147.5t-88.5 -121.5t-139.5 -82t-183 -30h-308q-101 0 -183 30t-139.5 82t-88.5 121.5t-31 147.5zM420 1174h311l-262 -721h123l260 741v86 h-432v-106z" />
<glyph unicode="8" d="M-4 381v608q0 78 31 147.5t88.5 121.5t139.5 82t183 30h308q101 0 183 -30t139.5 -82t88.5 -121.5t31 -147.5v-608q0 -78 -31 -147.5t-88.5 -121.5t-139.5 -82t-183 -30h-308q-101 0 -183 30t-139.5 82t-88.5 121.5t-31 147.5zM313 614l15 -86l65 -63l101 -12h268l100 12 l66 63l14 86v152l-14 84l-25 24l25 23l14 84v137l-14 84l-64 64l-102 14h-268l-103 -14l-63 -64l-15 -84v-137l15 -84l24 -23l-24 -24l-15 -84v-152zM420 629v127l10 55l70 10h256l69 -10l11 -55v-127l-15 -60l-65 -10h-256l-66 10zM420 997v111l10 55l70 11h256l69 -11 l11 -55v-111l-15 -59l-65 -10h-256l-66 10z" />
<glyph unicode="9" d="M-4 381v608q0 78 31 147.5t88.5 121.5t139.5 82t183 30h308q101 0 183 -30t139.5 -82t88.5 -121.5t31 -147.5v-608q0 -78 -31 -147.5t-88.5 -121.5t-139.5 -82t-183 -30h-308q-101 0 -183 30t-139.5 82t-88.5 121.5t-31 147.5zM301 934l14 -84l64 -64l102 -14h269l73 12 v-159l-10 -56h-67h-258l-105 13l-20 -105l116 -24h271l102 14l64 63l14 84v506l-14 84l-64 64l-102 12h-269l-100 -12l-66 -64l-14 -84v-186zM408 948v156l14 59l66 13h260l61 -13l14 -53v-166l-10 -55l-69 -10h-256l-70 10z" />
<glyph unicode=":" horiz-adv-x="877" d="M-4 381v608q0 78 31 147.5t88.5 121.5t139.5 82t183 30q102 0 183.5 -30t139.5 -82t89 -121.5t31 -147.5v-608q0 -78 -31 -147.5t-89 -121.5t-139.5 -82t-183.5 -30q-101 0 -183 30t-139.5 82t-88.5 121.5t-31 147.5zM373 453h131v129h-131v-129zM373 741h131v129h-131 v-129z" />
<glyph unicode=";" horiz-adv-x="877" d="M-4 381v608q0 78 31 147.5t88.5 121.5t139.5 82t183 30q102 0 183.5 -30t139.5 -82t89 -121.5t31 -147.5v-608q0 -78 -31 -147.5t-89 -121.5t-139.5 -82t-183.5 -30q-101 0 -183 30t-139.5 82t-88.5 121.5t-31 147.5zM373 453h65l-39 -101l64 -28l61 129v129h-151v-129z M389 741h131v129h-131v-129z" />
<glyph unicode="&#x3c;" horiz-adv-x="989" d="M-4 504v649q0 84 33 157.5t94 129t148.5 87.5t195.5 32h21h28q109 0 197.5 -32t150.5 -87.5t95.5 -129t33.5 -157.5v-649q0 -92 -36 -167.5t-102.5 -129t-161 -82.5t-212.5 -29q-111 0 -200.5 31.5t-152.5 86.5t-97.5 129.5t-34.5 160.5zM270 784l326 -376l47 45 l-299 344l299 344l-47 47l-326 -377v-27z" />
<glyph unicode="=" horiz-adv-x="989" d="M-4 504v649q0 84 33.5 157.5t95.5 129t150 87.5t198 32h49q108 0 195.5 -32t148.5 -87.5t94 -129t33 -157.5v-649q0 -86 -34 -160.5t-97 -129.5t-152 -86.5t-200 -31.5h-41q-109 0 -196.5 32t-149 87.5t-94.5 130t-33 158.5zM318 700h391v68h-391v-68zM318 899h391v64 h-391v-64z" />
<glyph unicode="&#x3e;" horiz-adv-x="989" d="M-4 504v649q0 84 33.5 157.5t95.5 129t150 87.5t198 32h49q108 0 195.5 -32t148.5 -87.5t94 -129t33 -157.5v-649q0 -86 -34 -160.5t-97 -129.5t-152 -86.5t-200 -31.5h-41q-109 0 -196.5 32t-149 87.5t-94.5 130t-33 158.5zM346 453l47 -45l326 376v27l-326 377l-47 -47 l299 -344z" />
<glyph unicode="?" d="M-4 381v608q0 78 31 147.5t88.5 121.5t139.5 82t183 30h308q101 0 183 -30t139.5 -82t88.5 -121.5t31 -147.5v-608q0 -78 -31 -147.5t-88.5 -121.5t-139.5 -82t-183 -30h-308q-101 0 -183 30t-139.5 82t-88.5 121.5t-31 147.5zM377 1105l87 -8q3 16 5.5 37.5t5.5 38.5 l276 11l76 -11l11 -67v-156l-11 -67l-203 -11l-42 -54v-196h86v165h85l99 14l57 57l15 82v176l-15 82l-57 57l-98 15h-205l-98 -15l-57 -57zM572 463h106v102h-106v-102z" />
<glyph unicode="@" d="M-4 381v608q0 78 31 147.5t88.5 121.5t139.5 82t183 30h308q101 0 183 -30t139.5 -82t88.5 -121.5t31 -147.5v-608q0 -78 -31 -147.5t-88.5 -121.5t-139.5 -82t-183 -30h-308q-101 0 -183 30t-139.5 82t-88.5 121.5t-31 147.5zM180 946q2 -15 2 -99q0 -82 2.5 -151.5 t13.5 -126t33 -99t61.5 -71.5t98.5 -44l264 -15l7 90q-53 -3 -96 -3q-107 0 -167 19t-89 65.5t-35.5 125.5t-6.5 199v110q0 48 10.5 94t50.5 82.5t119.5 59t217.5 22.5q97 0 155 -26.5t89 -69t41 -95t10 -104.5v-284l-17 -60h-96l-16 60v290l-17 93l-69 69l-109 13h-82 l-119 -25l19 -72l102 21h78l86 -15l16 -57v-94l-100 12h-55l-109 -14l-69 -70l-18 -45v-35l18 -47l69 -69l109 -13h55l117 29l49 -100h190l41 69l15 94q-1 10 -1.5 25t-0.5 41v65.5v98.5q0 39 -4 84t-17 90t-38 86.5t-67.5 74t-105 51.5t-149.5 19q-135 0 -223 -20 t-141.5 -54t-79 -78.5t-34.5 -93.5q-8 -43 -8 -87v-15zM481 715l9 49l100 12h43l104 -10v-107l-108 -12h-39l-92 12z" />
<glyph unicode="A" d="M-4 381v608q0 78 31 147.5t88.5 121.5t139.5 82t183 30h308q101 0 183 -30t139.5 -82t88.5 -121.5t31 -147.5v-608q0 -78 -31 -147.5t-88.5 -121.5t-139.5 -82t-183 -30h-308q-101 0 -183 30t-139.5 82t-88.5 121.5t-31 147.5zM295 453h119l16 213l10 92h369l10 -92 l19 -213h114l-79 745l-62 62l-133 20h-107l-133 -20l-61 -62zM449 854l30 305q28 3 48.5 7t48.5 8h98l94 -15q7 -81 16 -153t17 -152h-352z" />
<glyph unicode="B" d="M-4 381v608q0 78 31 147.5t88.5 121.5t139.5 82t183 30h308q101 0 183 -30t139.5 -82t88.5 -121.5t31 -147.5v-608q0 -78 -31 -147.5t-88.5 -121.5t-139.5 -82t-183 -30h-308q-101 0 -183 30t-139.5 82t-88.5 121.5t-31 147.5zM307 453h420l103 12l63 63l14 84v158 l-19 74l-80 35l80 30l19 76v133l-14 84l-63 64l-103 14h-420v-827zM414 559v264h309l68 -8l10 -59v-133l-14 -54l-66 -10h-307zM414 928v246h307l70 -11l-4 -59l14 -111l-14 -53l-66 -12h-307z" />
<glyph unicode="C" d="M-4 381v608q0 78 31 147.5t88.5 121.5t139.5 82t183 30h308q101 0 183 -30t139.5 -82t88.5 -121.5t31 -147.5v-608q0 -78 -31 -147.5t-88.5 -121.5t-139.5 -82t-183 -30h-308q-101 0 -183 30t-139.5 82t-88.5 121.5t-31 147.5zM311 612l15 -84l65 -63l101 -12h241l117 14 l-25 108l-94 -16h-233l-66 10l-14 60v481l10 55l70 11h229l103 -17l20 107l-117 14h-241l-103 -12l-63 -64l-15 -84v-508z" />
<glyph unicode="D" d="M-4 381v608q0 78 31 147.5t88.5 121.5t139.5 82t183 30h308q101 0 183 -30t139.5 -82t88.5 -121.5t31 -147.5v-608q0 -78 -31 -147.5t-88.5 -121.5t-139.5 -82t-183 -30h-308q-101 0 -183 30t-139.5 82t-88.5 121.5t-31 147.5zM328 453h446l103 12l63 63l14 86v504 l-14 84l-63 64l-103 14h-446v-827zM432 559v615h336l70 -11l10 -59v-479l-14 -56l-66 -10h-336z" />
<glyph unicode="E" d="M-4 381v608q0 78 31 147.5t88.5 121.5t139.5 82t183 30h308q101 0 183 -30t139.5 -82t88.5 -121.5t31 -147.5v-608q0 -78 -31 -147.5t-88.5 -121.5t-139.5 -82t-183 -30h-308q-101 0 -183 30t-139.5 82t-88.5 121.5t-31 147.5zM402 453h503v106h-399v254h334v105h-334 v256h385v106h-489v-827z" />
<glyph unicode="F" d="M-4 381v608q0 78 31 147.5t88.5 121.5t139.5 82t183 30h308q101 0 183 -30t139.5 -82t88.5 -121.5t31 -147.5v-608q0 -78 -31 -147.5t-88.5 -121.5t-139.5 -82t-183 -30h-308q-101 0 -183 30t-139.5 82t-88.5 121.5t-31 147.5zM397 453h107v378h334v105h-334v238h391v106 h-498v-827z" />
<glyph unicode="G" d="M-4 381v608q0 78 31 147.5t88.5 121.5t139.5 82t183 30h308q101 0 183 -30t139.5 -82t88.5 -121.5t31 -147.5v-608q0 -78 -31 -147.5t-88.5 -121.5t-139.5 -82t-183 -30h-308q-101 0 -183 30t-139.5 82t-88.5 121.5t-31 147.5zM342 614l14 -86l66 -63l100 -12h250l101 12 l65 63l14 86v263h-290v-107h184v-141q-5 -16 -7 -30t-7 -30l-66 -10h-242l-61 10l-14 64v473l10 55l65 15h260l103 -17l20 107l-116 14h-269l-102 -16l-64 -64l-14 -84v-502z" />
<glyph unicode="H" d="M-4 381v608q0 78 31 147.5t88.5 121.5t139.5 82t183 30h308q101 0 183 -30t139.5 -82t88.5 -121.5t31 -147.5v-608q0 -78 -31 -147.5t-88.5 -121.5t-139.5 -82t-183 -30h-308q-101 0 -183 30t-139.5 82t-88.5 121.5t-31 147.5zM328 453h106v372h416v-372h104v827h-104 v-350h-416v350h-106v-827z" />
<glyph unicode="I" d="M-4 381v608q0 78 31 147.5t88.5 121.5t139.5 82t183 30h308q101 0 183 -30t139.5 -82t88.5 -121.5t31 -147.5v-608q0 -78 -31 -147.5t-88.5 -121.5t-139.5 -82t-183 -30h-308q-101 0 -183 30t-139.5 82t-88.5 121.5t-31 147.5zM358 453h578v106h-235v615h235v106h-578 v-106h236v-615h-236v-106z" />
<glyph unicode="J" d="M-4 381v608q0 78 31 147.5t88.5 121.5t139.5 82t183 30h308q101 0 183 -30t139.5 -82t88.5 -121.5t31 -147.5v-608q0 -78 -31 -147.5t-88.5 -121.5t-139.5 -82t-183 -30h-308q-101 0 -183 30t-139.5 82t-88.5 121.5t-31 147.5zM453 453h155l101 14l78 61v752h-105v-649 l-14 -60l-66 -12h-149v-106z" />
<glyph unicode="K" d="M-4 381v608q0 78 31 147.5t88.5 121.5t139.5 82t183 30h308q101 0 183 -30t139.5 -82t88.5 -121.5t31 -147.5v-608q0 -78 -31 -147.5t-88.5 -121.5t-139.5 -82t-183 -30h-308q-101 0 -183 30t-139.5 82t-88.5 121.5t-31 147.5zM408 453h106v313q17 14 29.5 25.5 t28.5 25.5l327 -383l86 74l-331 377l344 340l-72 84l-412 -408v379h-106v-827z" />
<glyph unicode="L" d="M-4 381v608q0 78 31 147.5t88.5 121.5t139.5 82t183 30h308q101 0 183 -30t139.5 -82t88.5 -121.5t31 -147.5v-608q0 -78 -31 -147.5t-88.5 -121.5t-139.5 -82t-183 -30h-308q-101 0 -183 30t-139.5 82t-88.5 121.5t-31 147.5zM449 453h413v106h-307v721h-106v-827z" />
<glyph unicode="M" d="M-4 381v608q0 78 31 147.5t88.5 121.5t139.5 82t183 30h308q101 0 183 -30t139.5 -82t88.5 -121.5t31 -147.5v-608q0 -78 -31 -147.5t-88.5 -121.5t-139.5 -82t-183 -30h-308q-101 0 -183 30t-139.5 82t-88.5 121.5t-31 147.5zM256 453h107v712q14 3 25 4t24 5h114 q11 -4 21.5 -5t21.5 -4v-424h107v424l43 9h115q12 -4 24 -5t25 -4v-712h106v749l-63 64l-84 14h-131l-54 -16l-34 -69l-33 69l-55 16h-131l-84 -14l-64 -64v-749z" />
<glyph unicode="N" d="M-4 381v608q0 78 31 147.5t88.5 121.5t139.5 82t183 30h308q101 0 183 -30t139.5 -82t88.5 -121.5t31 -147.5v-608q0 -78 -31 -147.5t-88.5 -121.5t-139.5 -82t-183 -30h-308q-101 0 -183 30t-139.5 82t-88.5 121.5t-31 147.5zM322 453h106v710l78 13h240l69 -11l10 -59 v-653h107v667l-14 84l-64 64l-102 12h-250l-180 -25v-802z" />
<glyph unicode="O" d="M-4 381v608q0 78 31 147.5t88.5 121.5t139.5 82t183 30h308q101 0 183 -30t139.5 -82t88.5 -121.5t31 -147.5v-608q0 -78 -31 -147.5t-88.5 -121.5t-139.5 -82t-183 -30h-308q-101 0 -183 30t-139.5 82t-88.5 121.5t-31 147.5zM326 614l12 -86l66 -63l100 -12h268l103 12 l63 63l14 86v504l-14 84l-63 64l-103 14h-268l-102 -14l-64 -64l-12 -84v-504zM430 629v479l10 55l70 11h256l70 -11l10 -59v-479l-14 -56l-66 -10h-256l-65 10z" />
<glyph unicode="P" d="M-4 381v608q0 78 31 147.5t88.5 121.5t139.5 82t183 30h308q101 0 183 -30t139.5 -82t88.5 -121.5t31 -147.5v-608q0 -78 -31 -147.5t-88.5 -121.5t-139.5 -82t-183 -30h-308q-101 0 -183 30t-139.5 82t-88.5 121.5t-31 147.5zM377 453h104v295h269l102 12l64 63l14 86 v209l-14 84l-64 64l-102 14h-373v-827zM481 854v320h263l69 -11l10 -59v-184l-14 -56l-65 -10h-263z" />
<glyph unicode="Q" d="M-4 381v608q0 78 31 147.5t88.5 121.5t139.5 82t183 30h308q101 0 183 -30t139.5 -82t88.5 -121.5t31 -147.5v-608q0 -78 -31 -147.5t-88.5 -121.5t-139.5 -82t-183 -30h-308q-101 0 -183 30t-139.5 82t-88.5 121.5t-31 147.5zM328 614l12 -86l66 -63l100 -12h178 l78 -154l94 45l-55 113l76 8l63 63l14 86v504l-14 84l-63 64l-103 14h-268l-102 -14l-64 -64l-12 -84v-504zM432 629v479l10 55l70 11h256l70 -11l10 -59v-479l-14 -56l-66 -10h-20l-60 117l-92 -51l31 -66h-115l-65 10z" />
<glyph unicode="R" d="M-4 381v608q0 78 31 147.5t88.5 121.5t139.5 82t183 30h308q101 0 183 -30t139.5 -82t88.5 -121.5t31 -147.5v-608q0 -78 -31 -147.5t-88.5 -121.5t-139.5 -82t-183 -30h-308q-101 0 -183 30t-139.5 82t-88.5 121.5t-31 147.5zM344 453h107v333h260l71 -32l15 -54v-247 h106v258l-35 92l-114 41l110 53l31 90v111l-12 84l-66 84l-100 14h-373v-827zM451 893v281h260l71 -31l7 -58v-106l-15 -55l-63 -31h-260z" />
<glyph unicode="S" d="M-4 381v608q0 78 31 147.5t88.5 121.5t139.5 82t183 30h308q101 0 183 -30t139.5 -82t88.5 -121.5t31 -147.5v-608q0 -78 -31 -147.5t-88.5 -121.5t-139.5 -82t-183 -30h-308q-101 0 -183 30t-139.5 82t-88.5 121.5t-31 147.5zM348 981l13 -84l65 -63l100 -13h226l61 -10 q3 -15 7 -28t7 -27v-131q-2 -13 -6.5 -28t-7.5 -28l-65 -10h-248l-98 16l-25 -108l117 -14h260l102 12l64 63l14 86v152l-14 86l-64 63l-104 11h-224l-61 12q-5 17 -7 30.5t-7 28.5v105l14 59l66 13h254l94 -19l24 109l-116 16h-263l-100 -14l-65 -64l-13 -84v-137z" />
<glyph unicode="T" d="M-4 381v608q0 78 31 147.5t88.5 121.5t139.5 82t183 30h308q101 0 183 -30t139.5 -82t88.5 -121.5t31 -147.5v-608q0 -78 -31 -147.5t-88.5 -121.5t-139.5 -82t-183 -30h-308q-101 0 -183 30t-139.5 82t-88.5 121.5t-31 147.5zM358 1174h236v-721h107v721h235v106h-578 v-106z" />
<glyph unicode="U" d="M-4 381v608q0 78 31 147.5t88.5 121.5t139.5 82t183 30h308q101 0 183 -30t139.5 -82t88.5 -121.5t31 -147.5v-608q0 -78 -31 -147.5t-88.5 -121.5t-139.5 -82t-183 -30h-308q-101 0 -183 30t-139.5 82t-88.5 121.5t-31 147.5zM320 614l12 -86l65 -63l101 -12h268l102 12 l64 63l14 86v666h-106v-655q-2 -13 -6.5 -28t-8.5 -28l-65 -10h-256l-66 10l-14 60v651h-104v-666z" />
<glyph unicode="V" d="M-4 381v608q0 78 31 147.5t88.5 121.5t139.5 82t183 30h308q101 0 183 -30t139.5 -82t88.5 -121.5t31 -147.5v-608q0 -78 -31 -147.5t-88.5 -121.5t-139.5 -82t-183 -30h-308q-101 0 -183 30t-139.5 82t-88.5 121.5t-31 147.5zM309 1260l197 -736l59 -59l64 -19l67 19 l60 59l196 736l-116 20l-181 -715l-22 -8l-27 6l-180 717z" />
<glyph unicode="W" d="M-4 381v608q0 78 31 147.5t88.5 121.5t139.5 82t183 30h308q101 0 183 -30t139.5 -82t88.5 -121.5t31 -147.5v-608q0 -78 -31 -147.5t-88.5 -121.5t-139.5 -82t-183 -30h-308q-101 0 -183 30t-139.5 82t-88.5 121.5t-31 147.5zM219 1260l80 -734l62 -61l65 -16l66 16 l61 61l66 441l65 -441l62 -61l65 -16l66 16l61 61l80 734l-115 20l-67 -717l-27 -6l-22 8l-119 682h-99l-118 -682l-23 -8l-26 6l-68 717z" />
<glyph unicode="X" d="M-4 381v608q0 78 31 147.5t88.5 121.5t139.5 82t183 30h308q101 0 183 -30t139.5 -82t88.5 -121.5t31 -147.5v-608q0 -78 -31 -147.5t-88.5 -121.5t-139.5 -82t-183 -30h-308q-101 0 -183 30t-139.5 82t-88.5 121.5t-31 147.5zM324 1241l233 -377l-231 -375l94 -38 l221 348l227 -348l95 38l-232 375l236 381l-99 37l-227 -360l-221 360z" />
<glyph unicode="Y" d="M-4 381v608q0 78 31 147.5t88.5 121.5t139.5 82t183 30h308q101 0 183 -30t139.5 -82t88.5 -121.5t31 -147.5v-608q0 -78 -31 -147.5t-88.5 -121.5t-139.5 -82t-183 -30h-308q-101 0 -183 30t-139.5 82t-88.5 121.5t-31 147.5zM334 1280l250 -594v-233h106v231l254 596 h-125l-182 -449l-178 449h-125z" />
<glyph unicode="Z" d="M-4 381v608q0 78 31 147.5t88.5 121.5t139.5 82t183 30h308q101 0 183 -30t139.5 -82t88.5 -121.5t31 -147.5v-608q0 -78 -31 -147.5t-88.5 -121.5t-139.5 -82t-183 -30h-308q-101 0 -183 30t-139.5 82t-88.5 121.5t-31 147.5zM377 539l33 -86h475v104h-377l354 635 l-41 88h-428v-106h338z" />
<glyph unicode="[" horiz-adv-x="993" d="M-4 381v608q0 78 31 147.5t88.5 121.5t139.5 82t183 30h117q101 0 183 -30t139.5 -82t88.5 -121.5t31 -147.5v-608q0 -78 -31 -147.5t-88.5 -121.5t-139.5 -82t-183 -30h-117q-101 0 -183 30t-139.5 82t-88.5 121.5t-31 147.5zM419 354h172v105h-65v741h65v105h-172v-951 z" />
<glyph unicode="\" horiz-adv-x="1057" d="M-4 381v608q0 78 31 147.5t88.5 121.5t139.5 82t183 30h181q101 0 183 -30t139.5 -82t88.5 -121.5t31 -147.5v-608q0 -78 -31 -147.5t-88.5 -121.5t-139.5 -82t-183 -30h-181q-101 0 -183 30t-139.5 82t-88.5 121.5t-31 147.5zM424 1280l137 -827h109l-137 827h-109z" />
<glyph unicode="]" horiz-adv-x="993" d="M-4 381v608q0 78 31 147.5t88.5 121.5t139.5 82t183 30h117q101 0 183 -30t139.5 -82t88.5 -121.5t31 -147.5v-608q0 -78 -31 -147.5t-88.5 -121.5t-139.5 -82t-183 -30h-117q-101 0 -183 30t-139.5 82t-88.5 121.5t-31 147.5zM402 354h172v951h-172v-105h65v-741h-65 v-105z" />
<glyph unicode="^" horiz-adv-x="729" d="M-4 674q0 40 17 94.5t41.5 114.5t52 120.5t49.5 112.5q18 23 34 39t33.5 27t38.5 19.5t49 16.5h74q42 -4 71.5 -11.5t52 -22t41 -38.5t38.5 -61q34 -85 69 -169t70 -169q6 -35 6 -63q0 -179 -209 -197h-41q-40 11 -66.5 23.5t-49.5 34.5q-28 -29 -62.5 -41t-91.5 -17h-41 q-176 47 -176 187zM189 684h40l136 266l135 -266h41l-139 338h-74z" />
<glyph unicode="_" horiz-adv-x="877" d="M-4 381v608q0 78 31 147.5t88.5 121.5t139.5 82t183 30q102 0 183.5 -30t139.5 -82t89 -121.5t31 -147.5v-608q0 -78 -31 -147.5t-89 -121.5t-139.5 -82t-183.5 -30q-101 0 -183 30t-139.5 82t-88.5 121.5t-31 147.5zM209 344h459v109h-459v-109z" />
<glyph unicode="`" horiz-adv-x="631" d="M-4 487q0 49 25 86.5t66 63t94.5 38.5t109.5 13q42 0 80.5 -6t70 -19t54.5 -35t35 -53q34 -107 54.5 -176t31.5 -111.5t14.5 -63.5t3.5 -31q0 -30 -10 -56.5t-27 -48.5t-39 -38.5t-45 -26.5h-274q-11 11 -21 26t-22 35l-158 270q-23 38 -33 71.5t-10 61.5zM215 514 l152 -334h69l-100 334h-121z" />
<glyph unicode="a" d="M-4 381v608q0 78 31 147.5t88.5 121.5t139.5 82t183 30h308q101 0 183 -30t139.5 -82t88.5 -121.5t31 -147.5v-608q0 -78 -31 -147.5t-88.5 -121.5t-139.5 -82t-183 -30h-308q-101 0 -183 30t-139.5 82t-88.5 121.5t-31 147.5zM295 612l14 -84l64 -63l100 -12h219l78 12 l99 -11v228v438v84l-68 64l-100 12h-228l-117 -14l25 -109l94 19h223l60 -13l14 -53v-233l-71 12h-228l-100 -15l-64 -63l-14 -82v-117zM402 629v86l8 57l69 10h217l76 -8v-151v-54l-78 -10h-215l-63 10z" />
<glyph unicode="b" d="M-4 381v608q0 78 31 147.5t88.5 121.5t139.5 82t183 30h308q101 0 183 -30t139.5 -82t88.5 -121.5t31 -147.5v-608q0 -78 -31 -147.5t-88.5 -121.5t-139.5 -82t-183 -30h-308q-101 0 -183 30t-139.5 82t-88.5 121.5t-31 147.5zM307 453h420l103 12l63 63l14 84v158 l-19 74l-80 35l80 30l19 76v133l-14 84l-63 64l-103 14h-420v-827zM414 559v264h309l68 -8l10 -59v-133l-14 -54l-66 -10h-307zM414 928v246h307l70 -11l-4 -59l14 -111l-14 -53l-66 -12h-307z" />
<glyph unicode="c" d="M-4 381v608q0 78 31 147.5t88.5 121.5t139.5 82t183 30h308q101 0 183 -30t139.5 -82t88.5 -121.5t31 -147.5v-608q0 -78 -31 -147.5t-88.5 -121.5t-139.5 -82t-183 -30h-308q-101 0 -183 30t-139.5 82t-88.5 121.5t-31 147.5zM311 612l15 -84l65 -63l101 -12h241l117 14 l-25 108l-94 -16h-233l-66 10l-14 60v481l10 55l70 11h229l103 -17l20 107l-117 14h-241l-103 -12l-63 -64l-15 -84v-508z" />
<glyph unicode="d" d="M-4 381v608q0 78 31 147.5t88.5 121.5t139.5 82t183 30h308q101 0 183 -30t139.5 -82t88.5 -121.5t31 -147.5v-608q0 -78 -31 -147.5t-88.5 -121.5t-139.5 -82t-183 -30h-308q-101 0 -183 30t-139.5 82t-88.5 121.5t-31 147.5zM328 453h446l103 12l63 63l14 86v504 l-14 84l-63 64l-103 14h-446v-827zM432 559v615h336l70 -11l10 -59v-479l-14 -56l-66 -10h-336z" />
<glyph unicode="e" d="M-4 381v608q0 78 31 147.5t88.5 121.5t139.5 82t183 30h308q101 0 183 -30t139.5 -82t88.5 -121.5t31 -147.5v-608q0 -78 -31 -147.5t-88.5 -121.5t-139.5 -82t-183 -30h-308q-101 0 -183 30t-139.5 82t-88.5 121.5t-31 147.5zM303 645l15 -84l63 -63l100 -13h252l117 15 l-25 108l-94 -16h-243l-64 10l-14 60v206h467v252l-15 84l-63 64l-101 12h-217l-100 -12l-63 -64l-15 -84v-475zM410 973v135l8 57l70 11h204l68 -11l10 -59v-133h-360z" />
<glyph unicode="f" d="M-4 381v608q0 78 31 147.5t88.5 121.5t139.5 82t183 30h308q101 0 183 -30t139.5 -82t88.5 -121.5t31 -147.5v-608q0 -78 -31 -147.5t-88.5 -121.5t-139.5 -82t-183 -30h-308q-101 0 -183 30t-139.5 82t-88.5 121.5t-31 147.5zM397 453h107v378h334v105h-334v238h391v106 h-498v-827z" />
<glyph unicode="g" d="M-4 381v608q0 78 31 147.5t88.5 121.5t139.5 82t183 30h308q101 0 183 -30t139.5 -82t88.5 -121.5t31 -147.5v-608q0 -78 -31 -147.5t-88.5 -121.5t-139.5 -82t-183 -30h-308q-101 0 -183 30t-139.5 82t-88.5 121.5t-31 147.5zM342 614l14 -86l66 -63l100 -12h250l101 12 l65 63l14 86v263h-290v-107h184v-141q-5 -16 -7 -30t-7 -30l-66 -10h-242l-61 10l-14 64v473l10 55l65 15h260l103 -17l20 107l-116 14h-269l-102 -16l-64 -64l-14 -84v-502z" />
<glyph unicode="h" d="M-4 381v608q0 78 31 147.5t88.5 121.5t139.5 82t183 30h308q101 0 183 -30t139.5 -82t88.5 -121.5t31 -147.5v-608q0 -78 -31 -147.5t-88.5 -121.5t-139.5 -82t-183 -30h-308q-101 0 -183 30t-139.5 82t-88.5 121.5t-31 147.5zM328 453h106v372h416v-372h104v827h-104 v-350h-416v350h-106v-827z" />
<glyph unicode="i" d="M-4 381v608q0 78 31 147.5t88.5 121.5t139.5 82t183 30h308q101 0 183 -30t139.5 -82t88.5 -121.5t31 -147.5v-608q0 -78 -31 -147.5t-88.5 -121.5t-139.5 -82t-183 -30h-308q-101 0 -183 30t-139.5 82t-88.5 121.5t-31 147.5zM358 453h578v106h-235v615h235v106h-578 v-106h236v-615h-236v-106z" />
<glyph unicode="j" d="M-4 381v608q0 78 31 147.5t88.5 121.5t139.5 82t183 30h308q101 0 183 -30t139.5 -82t88.5 -121.5t31 -147.5v-608q0 -78 -31 -147.5t-88.5 -121.5t-139.5 -82t-183 -30h-308q-101 0 -183 30t-139.5 82t-88.5 121.5t-31 147.5zM453 453h155l101 14l78 61v752h-105v-649 l-14 -60l-66 -12h-149v-106z" />
<glyph unicode="k" d="M-4 381v608q0 78 31 147.5t88.5 121.5t139.5 82t183 30h308q101 0 183 -30t139.5 -82t88.5 -121.5t31 -147.5v-608q0 -78 -31 -147.5t-88.5 -121.5t-139.5 -82t-183 -30h-308q-101 0 -183 30t-139.5 82t-88.5 121.5t-31 147.5zM408 453h106v313q17 14 29.5 25.5 t28.5 25.5l327 -383l86 74l-331 377l344 340l-72 84l-412 -408v379h-106v-827z" />
<glyph unicode="l" d="M-4 381v608q0 78 31 147.5t88.5 121.5t139.5 82t183 30h308q101 0 183 -30t139.5 -82t88.5 -121.5t31 -147.5v-608q0 -78 -31 -147.5t-88.5 -121.5t-139.5 -82t-183 -30h-308q-101 0 -183 30t-139.5 82t-88.5 121.5t-31 147.5zM449 453h413v106h-307v721h-106v-827z" />
<glyph unicode="m" d="M-4 381v608q0 78 31 147.5t88.5 121.5t139.5 82t183 30h308q101 0 183 -30t139.5 -82t88.5 -121.5t31 -147.5v-608q0 -78 -31 -147.5t-88.5 -121.5t-139.5 -82t-183 -30h-308q-101 0 -183 30t-139.5 82t-88.5 121.5t-31 147.5zM256 453h107v712q14 3 25 4t24 5h114 q11 -4 21.5 -5t21.5 -4v-424h107v424l43 9h115q12 -4 24 -5t25 -4v-712h106v749l-63 64l-84 14h-131l-54 -16l-34 -69l-33 69l-55 16h-131l-84 -14l-64 -64v-749z" />
<glyph unicode="n" d="M-4 381v608q0 78 31 147.5t88.5 121.5t139.5 82t183 30h308q101 0 183 -30t139.5 -82t88.5 -121.5t31 -147.5v-608q0 -78 -31 -147.5t-88.5 -121.5t-139.5 -82t-183 -30h-308q-101 0 -183 30t-139.5 82t-88.5 121.5t-31 147.5zM322 453h106v710l78 13h240l69 -11l10 -59 v-653h107v667l-14 84l-64 64l-102 12h-250l-180 -25v-802z" />
<glyph unicode="o" d="M-4 381v608q0 78 31 147.5t88.5 121.5t139.5 82t183 30h308q101 0 183 -30t139.5 -82t88.5 -121.5t31 -147.5v-608q0 -78 -31 -147.5t-88.5 -121.5t-139.5 -82t-183 -30h-308q-101 0 -183 30t-139.5 82t-88.5 121.5t-31 147.5zM326 614l12 -86l66 -63l100 -12h268l103 12 l63 63l14 86v504l-14 84l-63 64l-103 14h-268l-102 -14l-64 -64l-12 -84v-504zM430 629v479l10 55l70 11h256l70 -11l10 -59v-479l-14 -56l-66 -10h-256l-65 10z" />
<glyph unicode="p" d="M-4 381v608q0 78 31 147.5t88.5 121.5t139.5 82t183 30h308q101 0 183 -30t139.5 -82t88.5 -121.5t31 -147.5v-608q0 -78 -31 -147.5t-88.5 -121.5t-139.5 -82t-183 -30h-308q-101 0 -183 30t-139.5 82t-88.5 121.5t-31 147.5zM377 453h104v295h269l102 12l64 63l14 86 v209l-14 84l-64 64l-102 14h-373v-827zM481 854v320h263l69 -11l10 -59v-184l-14 -56l-65 -10h-263z" />
<glyph unicode="q" d="M-4 381v608q0 78 31 147.5t88.5 121.5t139.5 82t183 30h308q101 0 183 -30t139.5 -82t88.5 -121.5t31 -147.5v-608q0 -78 -31 -147.5t-88.5 -121.5t-139.5 -82t-183 -30h-308q-101 0 -183 30t-139.5 82t-88.5 121.5t-31 147.5zM328 614l12 -86l66 -63l100 -12h178 l78 -154l94 45l-55 113l76 8l63 63l14 86v504l-14 84l-63 64l-103 14h-268l-102 -14l-64 -64l-12 -84v-504zM432 629v479l10 55l70 11h256l70 -11l10 -59v-479l-14 -56l-66 -10h-20l-60 117l-92 -51l31 -66h-115l-65 10z" />
<glyph unicode="r" d="M-4 381v608q0 78 31 147.5t88.5 121.5t139.5 82t183 30h308q101 0 183 -30t139.5 -82t88.5 -121.5t31 -147.5v-608q0 -78 -31 -147.5t-88.5 -121.5t-139.5 -82t-183 -30h-308q-101 0 -183 30t-139.5 82t-88.5 121.5t-31 147.5zM344 453h107v333h260l71 -32l15 -54v-247 h106v258l-35 92l-114 41l110 53l31 90v111l-12 84l-66 84l-100 14h-373v-827zM451 893v281h260l71 -31l7 -58v-106l-15 -55l-63 -31h-260z" />
<glyph unicode="s" d="M-4 381v608q0 78 31 147.5t88.5 121.5t139.5 82t183 30h308q101 0 183 -30t139.5 -82t88.5 -121.5t31 -147.5v-608q0 -78 -31 -147.5t-88.5 -121.5t-139.5 -82t-183 -30h-308q-101 0 -183 30t-139.5 82t-88.5 121.5t-31 147.5zM348 981l13 -84l65 -63l100 -13h226l61 -10 q3 -15 7 -28t7 -27v-131q-2 -13 -6.5 -28t-7.5 -28l-65 -10h-248l-98 16l-25 -108l117 -14h260l102 12l64 63l14 86v152l-14 86l-64 63l-104 11h-224l-61 12q-5 17 -7 30.5t-7 28.5v105l14 59l66 13h254l94 -19l24 109l-116 16h-263l-100 -14l-65 -64l-13 -84v-137z" />
<glyph unicode="t" d="M-4 381v608q0 78 31 147.5t88.5 121.5t139.5 82t183 30h308q101 0 183 -30t139.5 -82t88.5 -121.5t31 -147.5v-608q0 -78 -31 -147.5t-88.5 -121.5t-139.5 -82t-183 -30h-308q-101 0 -183 30t-139.5 82t-88.5 121.5t-31 147.5zM358 1174h236v-721h107v721h235v106h-578 v-106z" />
<glyph unicode="u" d="M-4 381v608q0 78 31 147.5t88.5 121.5t139.5 82t183 30h308q101 0 183 -30t139.5 -82t88.5 -121.5t31 -147.5v-608q0 -78 -31 -147.5t-88.5 -121.5t-139.5 -82t-183 -30h-308q-101 0 -183 30t-139.5 82t-88.5 121.5t-31 147.5zM320 614l12 -86l65 -63l101 -12h268l102 12 l64 63l14 86v666h-106v-655q-2 -13 -6.5 -28t-8.5 -28l-65 -10h-256l-66 10l-14 60v651h-104v-666z" />
<glyph unicode="v" d="M-4 381v608q0 78 31 147.5t88.5 121.5t139.5 82t183 30h308q101 0 183 -30t139.5 -82t88.5 -121.5t31 -147.5v-608q0 -78 -31 -147.5t-88.5 -121.5t-139.5 -82t-183 -30h-308q-101 0 -183 30t-139.5 82t-88.5 121.5t-31 147.5zM309 1260l197 -736l59 -59l64 -19l67 19 l60 59l196 736l-116 20l-181 -715l-22 -8l-27 6l-180 717z" />
<glyph unicode="w" d="M-4 381v608q0 78 31 147.5t88.5 121.5t139.5 82t183 30h308q101 0 183 -30t139.5 -82t88.5 -121.5t31 -147.5v-608q0 -78 -31 -147.5t-88.5 -121.5t-139.5 -82t-183 -30h-308q-101 0 -183 30t-139.5 82t-88.5 121.5t-31 147.5zM219 1260l80 -734l62 -61l65 -16l66 16 l61 61l66 441l65 -441l62 -61l65 -16l66 16l61 61l80 734l-115 20l-67 -717l-27 -6l-22 8l-119 682h-99l-118 -682l-23 -8l-26 6l-68 717z" />
<glyph unicode="x" d="M-4 381v608q0 78 31 147.5t88.5 121.5t139.5 82t183 30h308q101 0 183 -30t139.5 -82t88.5 -121.5t31 -147.5v-608q0 -78 -31 -147.5t-88.5 -121.5t-139.5 -82t-183 -30h-308q-101 0 -183 30t-139.5 82t-88.5 121.5t-31 147.5zM324 1241l233 -377l-231 -375l94 -38 l221 348l227 -348l95 38l-232 375l236 381l-99 37l-227 -360l-221 360z" />
<glyph unicode="y" d="M-4 381v608q0 78 31 147.5t88.5 121.5t139.5 82t183 30h308q101 0 183 -30t139.5 -82t88.5 -121.5t31 -147.5v-608q0 -78 -31 -147.5t-88.5 -121.5t-139.5 -82t-183 -30h-308q-101 0 -183 30t-139.5 82t-88.5 121.5t-31 147.5zM334 1280l250 -594v-233h106v231l254 596 h-125l-182 -449l-178 449h-125z" />
<glyph unicode="z" d="M-4 381v608q0 78 31 147.5t88.5 121.5t139.5 82t183 30h308q101 0 183 -30t139.5 -82t88.5 -121.5t31 -147.5v-608q0 -78 -31 -147.5t-88.5 -121.5t-139.5 -82t-183 -30h-308q-101 0 -183 30t-139.5 82t-88.5 121.5t-31 147.5zM377 539l33 -86h475v104h-377l354 635 l-41 88h-428v-106h338z" />
<glyph unicode="{" horiz-adv-x="993" d="M-4 381v608q0 78 31 147.5t88.5 121.5t139.5 82t183 30h117q101 0 183 -30t139.5 -82t88.5 -121.5t31 -147.5v-608q0 -78 -31 -147.5t-88.5 -121.5t-139.5 -82t-183 -30h-117q-101 0 -183 30t-139.5 82t-88.5 121.5t-31 147.5zM164 774h117l65 -10l15 -59v-193l14 -86 l65 -64l101 -12h123v107h-117l-66 10l-14 59v195l-14 84l-23 22l23 23l12 86v190l16 60l66 10h117v107h-123l-101 -13l-65 -65l-12 -84v-191l-19 -59l-63 -10h-117v-107z" />
<glyph unicode="|" horiz-adv-x="993" d="M-4 381v608q0 78 31 147.5t88.5 121.5t139.5 82t183 30h16v-992h85v992h16q101 0 183 -30t139.5 -82t88.5 -121.5t31 -147.5v-608q0 -78 -31 -147.5t-88.5 -121.5t-139.5 -82t-183 -30h-117q-101 0 -183 30t-139.5 82t-88.5 121.5t-31 147.5z" />
<glyph unicode="}" horiz-adv-x="993" d="M-4 381v608q0 78 31 147.5t88.5 121.5t139.5 82t183 30h117q101 0 183 -30t139.5 -82t88.5 -121.5t31 -147.5v-608q0 -78 -31 -147.5t-88.5 -121.5t-139.5 -82t-183 -30h-117q-101 0 -183 30t-139.5 82t-88.5 121.5t-31 147.5zM329 350h123l101 12l65 64l14 86v193l15 59 l65 10h117v107h-117l-63 10l-19 59v191l-12 84l-65 65l-101 13h-123v-107h117l66 -10l16 -60v-190l12 -86l23 -23l-23 -22l-14 -84v-195l-14 -59l-66 -10h-117v-107z" />
<glyph unicode="~" d="M-4 381v608q0 78 31 147.5t88.5 121.5t139.5 82t183 30h308q101 0 183 -30t139.5 -82t88.5 -121.5t31 -147.5v-608q0 -78 -31 -147.5t-88.5 -121.5t-139.5 -82t-183 -30h-308q-101 0 -183 30t-139.5 82t-88.5 121.5t-31 147.5zM315 928q0 -29 9 -66h90q0 31 4 49 t10.5 26.5t14 10.5t14.5 2q19 0 56 -13t82.5 -29t94 -29t90.5 -13q27 0 48.5 8t35.5 27.5t21.5 51t7.5 79.5v15t-2 16h-90q0 -36 -5 -55.5t-12.5 -28.5t-16 -10.5t-15.5 -1.5q-3 0 -35 11.5t-78.5 26t-100.5 26t-102 11.5q-25 0 -47 -5.5t-38.5 -19t-26 -35.5t-9.5 -54z" />
<glyph unicode="&#xa1;" horiz-adv-x="869" d="M-4 381v608q0 78 31 147.5t88.5 121.5t139.5 82t183 30q99 -2 179.5 -32.5t137.5 -82t87.5 -120t30.5 -146.5v-608q0 -78 -31 -147.5t-89 -121.5t-139.5 -82t-183.5 -30q-100 0 -180 30.5t-136.5 83t-87 121.5t-30.5 146zM389 1174h107v106h-107v-106zM412 438h80v654 h-80v-654z" />
<glyph unicode="&#xa2;" d="M-4 381v608q0 78 31 147.5t88.5 121.5t139.5 82t183 30h308q101 0 183 -30t139.5 -82t88.5 -121.5t31 -147.5v-608q0 -78 -31 -147.5t-88.5 -121.5t-139.5 -82t-183 -30h-308q-101 0 -183 30t-139.5 82t-88.5 121.5t-31 147.5zM363 649l14 -84l65 -63l101 -13h37v-139h80 v139h55l117 15l-25 108l-94 -16h-53v479h49l102 -16l21 106l-117 15h-55v143h-80v-143h-37l-103 -13l-63 -63l-14 -84v-371zM469 666v344l10 55l70 10h31v-479h-31h-66q-5 25 -7 39.5t-7 30.5z" />
<glyph unicode="&#xa3;" d="M-4 381v608q0 78 31 147.5t88.5 121.5t139.5 82t183 30h308q101 0 183 -30t139.5 -82t88.5 -121.5t31 -147.5v-608q0 -78 -31 -147.5t-88.5 -121.5t-139.5 -82t-183 -30h-308q-101 0 -183 30t-139.5 82t-88.5 121.5t-31 147.5zM356 809h72v-356h414v106h-307v250h256v78 h-256v274l75 15h56l73 -13v-123h107v152l-78 76l-104 14l-158 -14l-78 -76v-305h-72v-78z" />
<glyph unicode="&#xa4;" d="M-4 381v608q0 78 31 147.5t88.5 121.5t139.5 82t183 30h308q101 0 183 -30t139.5 -82t88.5 -121.5t31 -147.5v-608q0 -78 -31 -147.5t-88.5 -121.5t-139.5 -82t-183 -30h-308q-101 0 -183 30t-139.5 82t-88.5 121.5t-31 147.5zM324 659l65 -65l78 84l88 -10h150l90 10 l80 -84l65 65l-82 84l15 76v238l-13 67l80 86l-63 64l-76 -82v2l-96 12h-150l-94 -12l-74 80l-63 -64l73 -82l-8 -71v-238l10 -80zM477 825v230l11 51l65 10h154l65 -10l8 -55v-230l-12 -51l-61 -10h-154l-61 10z" />
<glyph unicode="&#xa5;" d="M-4 381v608q0 78 31 147.5t88.5 121.5t139.5 82t183 30h308q101 0 183 -30t139.5 -82t88.5 -121.5t31 -147.5v-608q0 -78 -31 -147.5t-88.5 -121.5t-139.5 -82t-183 -30h-308q-101 0 -183 30t-139.5 82t-88.5 121.5t-31 147.5zM299 1278l213 -506h-110v-84h147v-26h-147 v-84h147v-123h106v123h148v84h-148q0 14 -1 18t-1 6l2 2h148v84h-111l217 506h-125l-182 -447l-178 447h-125z" />
<glyph unicode="&#xa6;" horiz-adv-x="993" d="M-4 381v608q0 78 31 147.5t88.5 121.5t139.5 82t183 30h117q101 0 183 -30t139.5 -82t88.5 -121.5t31 -147.5v-608q0 -78 -31 -147.5t-88.5 -121.5t-139.5 -82t-183 -30h-117q-101 0 -183 30t-139.5 82t-88.5 121.5t-31 147.5zM446 453h107v366h-107v-366zM446 934h107 v346h-107v-346z" />
<glyph unicode="&#xa7;" d="M-4 381v608q0 78 31 147.5t88.5 121.5t139.5 82t183 30h308q101 0 183 -30t139.5 -82t88.5 -121.5t31 -147.5v-608q0 -78 -31 -147.5t-88.5 -121.5t-139.5 -82t-183 -30h-308q-101 0 -183 30t-139.5 82t-88.5 121.5t-31 147.5zM335 372l106 -15h261l97 14l59 57l12 82v82 l-12 82l-59 57h-9.5t-9.5 1l21 79v35l-15 84l-57 57l-99 10h-102l-69 13l-17 65v31l17 65l69 13h259l85 -16l21 85l-104 17h-263l-96 -15l-59 -57l-12 -82v-51l12 -82l59 -57l16 -3l-18 -77v-35l15 -84l57 -57l99 -10h100l70 -13l18 -66v-61l-17 -65l-69 -13h-259l-85 16z M514 821v17q3 19 7 38l8 38h100l71 -12l15 -64v-25q-3 -17 -7 -35t-8 -35h-98l-73 11z" />
<glyph unicode="&#xa8;" horiz-adv-x="795" d="M-4 291q0 60 28 114t80.5 95.5t126.5 65.5t166 24t166.5 -24t127 -65.5t80.5 -95.5t28 -114q0 -79 -34.5 -143t-100.5 -107h-535q-66 43 -99.5 107.5t-33.5 142.5zM193 207h131v129h-131v-129zM455 207h131v129h-131v-129z" />
<glyph unicode="&#xa9;" d="M-4 381v608q0 78 31 147.5t88.5 121.5t139.5 82t183 30h308q101 0 183 -30t139.5 -82t88.5 -121.5t31 -147.5v-608q0 -78 -31 -147.5t-88.5 -121.5t-139.5 -82t-183 -30h-308q-101 0 -183 30t-139.5 82t-88.5 121.5t-31 147.5zM143 811q0 -98 37 -184.5t101.5 -150.5 t150.5 -101t185 -37q98 0 184.5 37t150.5 101t101 150.5t37 184.5t-37 184.5t-101 150.5t-150.5 101t-184.5 37q-99 0 -185 -37t-150.5 -101t-101.5 -150.5t-37 -184.5zM211 811q0 84 32 157.5t87 129t129 87.5t158 32t157.5 -32t128.5 -87.5t87 -129t32 -157.5t-32 -157.5 t-87 -128.5t-128.5 -87t-157.5 -32t-158 32t-129 87t-87 128.5t-32 157.5zM426 641l10 -59l45 -45l70 -9h170l82 11l-16 75l-68 -12h-162l-47 8l-10 41v338l8 39l49 6h160l72 -10l14 74l-82 10h-170l-72 -8l-43 -45l-10 -60v-354z" />
<glyph unicode="&#xaa;" d="M-4 381v608q0 78 31 147.5t88.5 121.5t139.5 82t183 30h308q101 0 183 -30t139.5 -82t88.5 -121.5t31 -147.5v-608q0 -78 -31 -147.5t-88.5 -121.5t-139.5 -82t-183 -30h-308q-101 0 -183 30t-139.5 82t-88.5 121.5t-31 147.5zM369 756l14 -84l64 -64l100 -12h154l100 12 l63 64l15 84v364l-15 84l-63 64l-100 12h-154l-117 -14l25 -109q8 1 20 3.5t25 5.5t26 5.5t23 4.5h149l60 -13l14 -53v-147l-71 12h-154l-100 -14l-64 -64l-14 -82v-59zM475 772v29q3 12 4 27.5t4 29.5l70 10h143q19 -3 38.5 -4t37.5 -4v-94l-14 -53l-64 -11h-141l-63 11 q-1 6 -3 14t-4.5 17t-4.5 16.5t-3 11.5z" />
<glyph unicode="&#xab;" d="M-4 381v608q0 78 31 147.5t88.5 121.5t139.5 82t183 30h308q101 0 183 -30t139.5 -82t88.5 -121.5t31 -147.5v-608q0 -78 -31 -147.5t-88.5 -121.5t-139.5 -82t-183 -30h-308q-101 0 -183 30t-139.5 82t-88.5 121.5t-31 147.5zM297 784l264 -376l47 45l-237 344l237 344 l-47 47l-264 -377v-27zM522 784l285 -376l47 45l-258 344l258 344l-47 47l-285 -377v-27z" />
<glyph unicode="&#xad;" horiz-adv-x="877" d="M-4 381v608q0 78 31 147.5t88.5 121.5t139.5 82t183 30q102 0 183.5 -30t139.5 -82t89 -121.5t31 -147.5v-608q0 -78 -31 -147.5t-89 -121.5t-139.5 -82t-183.5 -30q-101 0 -183 30t-139.5 82t-88.5 121.5t-31 147.5zM250 918h377v108h-377v-108z" />
<glyph unicode="&#xae;" d="M-4 381v608q0 78 31 147.5t88.5 121.5t139.5 82t183 30h308q101 0 183 -30t139.5 -82t88.5 -121.5t31 -147.5v-608q0 -78 -31 -147.5t-88.5 -121.5t-139.5 -82t-183 -30h-308q-101 0 -183 30t-139.5 82t-88.5 121.5t-31 147.5zM143 811q0 -98 37 -184.5t101.5 -150.5 t150.5 -101t185 -37q98 0 184.5 37t150.5 101t101 150.5t37 184.5t-37 184.5t-101 150.5t-150.5 101t-184.5 37q-99 0 -185 -37t-150.5 -101t-101.5 -150.5t-37 -184.5zM211 811q0 84 32 157.5t87 129t129 87.5t158 32t157.5 -32t128.5 -87.5t87 -129t32 -157.5t-32 -157.5 t-87 -128.5t-128.5 -87t-157.5 -32t-158 32t-129 87t-87 128.5t-32 157.5zM434 530h74v234h182l51 -23l11 -36v-175h73v181l-24 65l-80 29l78 37l20 63v78l-8 57l-45 60l-72 10h-260v-580zM508 840v196h182l51 -22l5 -41v-74l-11 -39l-45 -20h-182z" />
<glyph unicode="&#xaf;" horiz-adv-x="877" d="M-4 279q0 65 31 123t88.5 101.5t139.5 69t183 25.5q102 0 183.5 -25.5t139.5 -69t89 -101.5t31 -123q0 -91 -45 -159.5t-129 -119.5h-537q-85 51 -129.5 119.5t-44.5 159.5zM236 209h376v108h-376v-108z" />
<glyph unicode="&#xb0;" horiz-adv-x="877" d="M-4 381v608q0 78 31 147.5t88.5 121.5t139.5 82t183 30q102 0 183.5 -30t139.5 -82t89 -121.5t31 -147.5v-608q0 -78 -31 -147.5t-89 -121.5t-139.5 -82t-183.5 -30q-101 0 -183 30t-139.5 82t-88.5 121.5t-31 147.5zM256 1100l12 -105l58 -57l78 -12h71l78 12l59 59 l11 93l-11 104l-59 57l-78 15h-71l-78 -15l-58 -57zM346 1096l10 69l60 11h53l55 -15l11 -65l-11 -66l-59 -14h-53l-56 10z" />
<glyph unicode="&#xb1;" horiz-adv-x="877" d="M-4 381v608q0 78 31 147.5t88.5 121.5t139.5 82t183 30q102 0 183.5 -30t139.5 -82t89 -121.5t31 -147.5v-608q0 -78 -31 -147.5t-89 -121.5t-139.5 -82t-183.5 -30q-101 0 -183 30t-139.5 82t-88.5 121.5t-31 147.5zM199 979h194v-195h105v195h196v106h-196v197h-105 v-197h-194v-106zM250 596h377v109h-377v-109z" />
<glyph unicode="&#xb2;" d="M-4 381v608q0 78 31 147.5t88.5 121.5t139.5 82t183 30h308q101 0 183 -30t139.5 -82t88.5 -121.5t31 -147.5v-608q0 -78 -31 -147.5t-88.5 -121.5t-139.5 -82t-183 -30h-308q-101 0 -183 30t-139.5 82t-88.5 121.5t-31 147.5zM390 1116l107 -10l12 57l70 11h59l70 -11 l10 -49l-15 -41l-135 -16l-116 -33l-45 -45l-13 -82v-92l64 -64h323v105h-282v39l8 55l141 16l117 33l45 43l14 68v28l-14 74l-64 64l-102 14h-72l-102 -14l-63 -64z" />
<glyph unicode="&#xb3;" d="M-4 381v608q0 78 31 147.5t88.5 121.5t139.5 82t183 30h308q101 0 183 -30t139.5 -82t88.5 -121.5t31 -147.5v-608q0 -78 -31 -147.5t-88.5 -121.5t-139.5 -82t-183 -30h-308q-101 0 -183 30t-139.5 82t-88.5 121.5t-31 147.5zM406 903l18 -86l64 -63l102 -13h119l102 13 l64 63l14 84v19l-14 79l-25 23l25 25l14 73v19l-14 63l-64 64l-102 14h-119l-102 -14l-64 -64l-18 -67l108 -11l12 39l70 11h107l69 -11l10 -39l-14 -51l-65 -10h-132v-88h134l67 -8l10 -56l-14 -53l-65 -10h-111l-61 10l-17 55z" />
<glyph unicode="&#xb4;" horiz-adv-x="631" d="M-4 193q0 10 3 31t14 63.5t31.5 111.5t55.5 176q12 31 35 53t54.5 35t70 19t80.5 6q56 0 109 -13t94.5 -38.5t66.5 -63t25 -86.5q-1 -28 -10.5 -61.5t-32.5 -71.5l-158 -270q-12 -20 -22 -35t-21 -26h-274q-23 10 -45 26.5t-39 38.5t-27 48.5t-10 56.5zM195 180h69 l152 334h-121z" />
<glyph unicode="&#xb5;" d="M-4 381v608q0 78 31 147.5t88.5 121.5t139.5 82t183 30h308q101 0 183 -30t139.5 -82t88.5 -121.5t31 -147.5v-608q0 -78 -31 -147.5t-88.5 -121.5t-139.5 -82t-183 -30h-308q-101 0 -183 30t-139.5 82t-88.5 121.5t-31 147.5zM293 322h104v145l74 -12h268l103 12l63 63 l15 86v662h-107v-651q-2 -13 -6.5 -28t-7.5 -28l-66 -10h-256l-65 10l-15 60v647h-104v-956z" />
<glyph unicode="&#xb6;" d="M-4 381v608q0 78 31 147.5t88.5 121.5t139.5 82t183 30h308q101 0 183 -30t139.5 -82t88.5 -121.5t31 -147.5v-608q0 -78 -31 -147.5t-88.5 -121.5t-139.5 -82t-183 -30h-308q-101 0 -183 30t-139.5 82t-88.5 121.5t-31 147.5zM318 983l14 -82l51 -51l96 -12h156v-363h63 v717h97v-717h63v785h-379l-96 -15l-51 -51l-14 -80v-131z" />
<glyph unicode="&#xb7;" horiz-adv-x="877" d="M-4 381v608q0 78 31 147.5t88.5 121.5t139.5 82t183 30q102 0 183.5 -30t139.5 -82t89 -121.5t31 -147.5v-608q0 -78 -31 -147.5t-89 -121.5t-139.5 -82t-183.5 -30q-101 0 -183 30t-139.5 82t-88.5 121.5t-31 147.5zM373 897h131v129h-131v-129z" />
<glyph unicode="&#xb8;" horiz-adv-x="207" d="M-4 -147l12 57l58 57h71v39h70v-117l-111 -10l-10 -35l14 -59l111 -10v-90l-143 12l-60 59l-12 78v19z" />
<glyph unicode="&#xb9;" d="M-4 381v608q0 78 31 147.5t88.5 121.5t139.5 82t183 30h308q101 0 183 -30t139.5 -82t88.5 -121.5t31 -147.5v-608q0 -78 -31 -147.5t-88.5 -121.5t-139.5 -82t-183 -30h-308q-101 0 -183 30t-139.5 82t-88.5 121.5t-31 147.5zM438 1124l129 45v-428h107v541h-90 l-146 -51v-107z" />
<glyph unicode="&#xba;" d="M-4 381v608q0 78 31 147.5t88.5 121.5t139.5 82t183 30h308q101 0 183 -30t139.5 -82t88.5 -121.5t31 -147.5v-608q0 -78 -31 -147.5t-88.5 -121.5t-139.5 -82t-183 -30h-308q-101 0 -183 30t-139.5 82t-88.5 121.5t-31 147.5zM365 758l12 -86l65 -64l101 -12h207l102 12 l64 64l14 86v360l-14 84l-64 64l-102 14h-207l-103 -14l-63 -64l-12 -84v-360zM469 772v336l10 55l70 11h195l69 -11l10 -59v-336l-14 -55l-65 -11h-195l-66 11z" />
<glyph unicode="&#xbb;" d="M-4 381v608q0 78 31 147.5t88.5 121.5t139.5 82t183 30h308q101 0 183 -30t139.5 -82t88.5 -121.5t31 -147.5v-608q0 -78 -31 -147.5t-88.5 -121.5t-139.5 -82t-183 -30h-308q-101 0 -183 30t-139.5 82t-88.5 121.5t-31 147.5zM330 453l47 -45l285 376v27l-285 377 l-47 -47l258 -344zM576 453l47 -45l264 376v27l-264 377l-47 -47l237 -344z" />
<glyph unicode="&#xbc;" d="M-4 381v608q0 78 31 147.5t88.5 121.5t139.5 82t183 30h308q101 0 183 -30t139.5 -82t88.5 -121.5t31 -147.5v-608q0 -78 -31 -147.5t-88.5 -121.5t-139.5 -82t-183 -30h-308q-101 0 -183 30t-139.5 82t-88.5 121.5t-31 147.5zM154 1124l129 45v-428h106v541h-90 l-145 -51v-107zM373 453h108l201 827h-108zM640 670l14 -84l63 -64l103 -12h72v-154h106v154h124v107h-124v313h-106v-315h-66l-70 10l-10 59v246h-106v-260z" />
<glyph unicode="&#xbd;" d="M-4 381v608q0 78 31 147.5t88.5 121.5t139.5 82t183 30h308q101 0 183 -30t139.5 -82t88.5 -121.5t31 -147.5v-608q0 -78 -31 -147.5t-88.5 -121.5t-139.5 -82t-183 -30h-308q-101 0 -183 30t-139.5 82t-88.5 121.5t-31 147.5zM154 1124l129 45v-428h106v541h-90 l-145 -51v-107zM373 453h108l201 827h-108zM643 829l107 -10l12 58l70 10h59l70 -10l10 -50l-14 -41l-136 -16l-116 -33l-45 -45l-13 -82v-92l64 -63h323v104h-282v39l8 55l141 17l117 32l45 43l14 68v29l-14 73l-63 64l-103 14h-72l-102 -14l-63 -64z" />
<glyph unicode="&#xbe;" d="M-4 381v608q0 78 31 147.5t88.5 121.5t139.5 82t183 30h308q101 0 183 -30t139.5 -82t88.5 -121.5t31 -147.5v-608q0 -78 -31 -147.5t-88.5 -121.5t-139.5 -82t-183 -30h-308q-101 0 -183 30t-139.5 82t-88.5 121.5t-31 147.5zM154 1124l129 45v-428h106v541h-90 l-145 -51v-107zM373 453h108l201 827h-108zM629 612l18 -86l64 -63l102 -12h119l102 12l64 63l14 84v19l-14 80l-25 22l25 25l14 73v19l-14 63l-64 64l-102 14h-119l-102 -14l-64 -64l-18 -67l108 -10l13 38l69 11h107l69 -11l11 -38l-15 -52l-65 -10h-131v-88h133l67 -8 l11 -55l-15 -54l-65 -10h-111l-61 10l-17 56z" />
<glyph unicode="&#xbf;" d="M-4 381v608q0 78 31 147.5t88.5 121.5t139.5 82t183 30h308q101 0 183 -30t139.5 -82t88.5 -121.5t31 -147.5v-608q0 -78 -31 -147.5t-88.5 -121.5t-139.5 -82t-183 -30h-308q-101 0 -183 30t-139.5 82t-88.5 121.5t-31 147.5zM369 631l15 -82l57 -57l98 -15h205l98 15 l57 57l17 93l-87 8q-3 -16 -5.5 -37.5t-5.5 -38.5l-276 -11l-76 11l-11 67v156l11 67l203 11l42 54v196h-86v-165h-85l-99 -14l-57 -57l-15 -82v-176zM615 1182h106v102h-106v-102z" />
<glyph unicode="&#xc0;" d="M-4 381v608q0 78 31 147.5t88.5 121.5t139.5 82t183 30h308q101 0 183 -30t139.5 -82t88.5 -121.5t31 -147.5v-608q0 -78 -31 -147.5t-88.5 -121.5t-139.5 -82t-183 -30h-308q-101 0 -183 30t-139.5 82t-88.5 121.5t-31 147.5zM189 1757q0 49 25 86.5t66 63t94.5 38.5 t109.5 13q42 0 80.5 -6t70 -19t54.5 -35t35 -53q34 -107 54.5 -176t31.5 -111.5t14.5 -63.5t3.5 -31q0 -30 -10 -56.5t-27 -48.5t-39 -38.5t-45 -26.5h-274q-11 11 -21 26t-22 35l-158 270q-23 38 -33 71.5t-10 61.5zM295 453h119l16 213l10 92h369l10 -92l19 -213h114 l-79 745l-62 62l-133 20h-107l-133 -20l-61 -62zM408 1784l152 -334h69l-100 334h-121zM449 854l30 305q28 3 48.5 7t48.5 8h98l94 -15q7 -81 16 -153t17 -152h-352z" />
<glyph unicode="&#xc1;" d="M-4 381v608q0 78 31 147.5t88.5 121.5t139.5 82t183 30h308q101 0 183 -30t139.5 -82t88.5 -121.5t31 -147.5v-608q0 -78 -31 -147.5t-88.5 -121.5t-139.5 -82t-183 -30h-308q-101 0 -183 30t-139.5 82t-88.5 121.5t-31 147.5zM295 453h119l16 213l10 92h369l10 -92 l19 -213h114l-79 745l-62 62l-133 20h-107l-133 -20l-61 -62zM367 1463q0 10 3 31t14 63.5t31.5 111.5t55.5 176q12 31 35 53t54.5 35t70 19t80.5 6q56 0 109 -13t94.5 -38.5t66.5 -63t25 -86.5q-1 -28 -10.5 -61.5t-32.5 -71.5l-158 -270q-12 -20 -22 -35t-21 -26h-274 q-23 10 -45 26.5t-39 38.5t-27 48.5t-10 56.5zM449 854l30 305q28 3 48.5 7t48.5 8h98l94 -15q7 -81 16 -153t17 -152h-352zM566 1450h69l152 334h-121z" />
<glyph unicode="&#xc2;" d="M-4 381v608q0 78 31 147.5t88.5 121.5t139.5 82t183 30h308q101 0 183 -30t139.5 -82t88.5 -121.5t31 -147.5v-608q0 -78 -31 -147.5t-88.5 -121.5t-139.5 -82t-183 -30h-308q-101 0 -183 30t-139.5 82t-88.5 121.5t-31 147.5zM250 1456q0 36 14.5 88t38 111.5t52 122.5 t55.5 121q29 51 79 76.5t134 25.5q42 0 75 -7t59 -22.5t46.5 -41t38.5 -62.5q40 -86 72 -162q13 -33 26.5 -67.5t23.5 -66t16.5 -59t6.5 -46.5q0 -102 -69 -156h-607q-31 26 -46 64.5t-15 80.5zM295 453h119l16 213l10 92h369l10 -92l19 -213h114l-79 745l-62 62l-133 20 h-107l-133 -20l-61 -62zM443 1467h81l95 292l94 -292h82l-131 338h-90zM449 854l30 305q28 3 48.5 7t48.5 8h98l94 -15q7 -81 16 -153t17 -152h-352z" />
<glyph unicode="&#xc3;" d="M-4 381v608q0 78 31 147.5t88.5 121.5t139.5 82t183 30h308q101 0 183 -30t139.5 -82t88.5 -121.5t31 -147.5v-608q0 -78 -31 -147.5t-88.5 -121.5t-139.5 -82t-183 -30h-308q-101 0 -183 30t-139.5 82t-88.5 121.5t-31 147.5zM180 1590q0 78 31 147t88.5 121t139.5 82 t183 30q102 0 183.5 -30t139.5 -82t89 -121t31 -147q0 -82 -34 -153.5t-97 -125.5h-621q-66 54 -99.5 124t-33.5 155zM295 453h119l16 213l10 92h369l10 -92l19 -213h114l-79 745l-62 62l-133 20h-107l-133 -20l-61 -62zM385 1434h90q8 38 18.5 52.5t24.5 14.5 q15 0 34.5 -11t46.5 -24.5t63 -24.5t83 -11q28 0 45 13.5t25.5 33.5t11 43t2.5 41v33h-90q-14 -45 -24.5 -60.5t-24.5 -15.5q-12 0 -28.5 10t-42 22.5t-62 22.5t-88.5 10q-29 0 -46 -16t-25.5 -38.5t-10.5 -45.5t-2 -37v-12zM449 854l30 305q28 3 48.5 7t48.5 8h98l94 -15 q7 -81 16 -153t17 -152h-352z" />
<glyph unicode="&#xc4;" d="M-4 381v608q0 78 31 147.5t88.5 121.5t139.5 82t183 30h308q101 0 183 -30t139.5 -82t88.5 -121.5t31 -147.5v-608q0 -78 -31 -147.5t-88.5 -121.5t-139.5 -82t-183 -30h-308q-101 0 -183 30t-139.5 82t-88.5 121.5t-31 147.5zM221 1563q0 60 28 114t80.5 95.5 t126.5 65.5t166 24t166.5 -24t127 -65.5t80.5 -95.5t28 -114q0 -79 -34.5 -143t-100.5 -107h-535q-66 43 -99.5 107.5t-33.5 142.5zM295 453h119l16 213l10 92h369l10 -92l19 -213h114l-79 745l-62 62l-133 20h-107l-133 -20l-61 -62zM418 1479h131v129h-131v-129zM449 854 l30 305q28 3 48.5 7t48.5 8h98l94 -15q7 -81 16 -153t17 -152h-352zM680 1479h131v129h-131v-129z" />
<glyph unicode="&#xc5;" d="M-4 381v608q0 78 31 147.5t88.5 121.5t139.5 82t183 30h308q101 0 183 -30t139.5 -82t88.5 -121.5t31 -147.5v-608q0 -78 -31 -147.5t-88.5 -121.5t-139.5 -82t-183 -30h-308q-101 0 -183 30t-139.5 82t-88.5 121.5t-31 147.5zM232 1567q0 78 26.5 147.5t76 121.5t120 82 t158.5 30q87 0 157.5 -30t120 -82t76.5 -121.5t27 -147.5q0 -75 -23 -140t-65 -116h-586q-45 51 -66.5 117.5t-21.5 138.5zM295 453h119l16 213l10 92h369l10 -92l19 -213h114l-79 745l-62 62l-133 20h-107l-133 -20l-61 -62zM439 1610l12 -98l53 -54l74 -12h68l71 12l58 56 l8 86l-8 98l-58 53l-71 15h-68l-74 -15l-53 -53zM449 854l30 305q28 3 48.5 7t48.5 8h98l94 -15q7 -81 16 -153t17 -152h-352zM517 1606l10 70l59 10h54l55 -15l10 -65l-10 -66l-60 -14h-53l-55 10z" />
<glyph unicode="&#xc6;" d="M-4 381v608q0 78 31 147.5t88.5 121.5t139.5 82t183 30h308q101 0 183 -30t139.5 -82t88.5 -121.5t31 -147.5v-608q0 -78 -31 -147.5t-88.5 -121.5t-139.5 -82t-183 -30h-308q-101 0 -183 30t-139.5 82t-88.5 121.5t-31 147.5zM248 459h106l17 131h205v-131h368v104h-262 v256h262v105h-262v252h262v106h-420l-133 -20l-61 -62zM383 696l49 465q28 3 48.5 7t47.5 8h48v-480h-193z" />
<glyph unicode="&#xc7;" d="M-4 381v608q0 78 31 147.5t88.5 121.5t139.5 82t183 30h308q101 0 183 -30t139.5 -82t88.5 -121.5t31 -147.5v-608q0 -78 -31 -147.5t-88.5 -121.5t-139.5 -82t-183 -30h-308q-101 0 -183 30t-139.5 82t-88.5 121.5t-31 147.5zM311 612l15 -84l65 -63l101 -12h100v-35 h-71l-58 -61l-12 -57v-19l12 -78l60 -59l143 -12v90l-111 10l-14 59l10 35l111 10v117h71l117 14l-25 108l-94 -16h-233l-66 10l-14 60v481l10 55l70 11h229l103 -17l20 107l-117 14h-241l-103 -12l-63 -64l-15 -84v-508z" />
<glyph unicode="&#xc8;" d="M-4 381v608q0 78 31 147.5t88.5 121.5t139.5 82t183 30h308q101 0 183 -30t139.5 -82t88.5 -121.5t31 -147.5v-608q0 -78 -31 -147.5t-88.5 -121.5t-139.5 -82t-183 -30h-308q-101 0 -183 30t-139.5 82t-88.5 121.5t-31 147.5zM209 1757q0 49 25 86.5t66 63t94.5 38.5 t109.5 13q42 0 80.5 -6t70 -19t54.5 -35t35 -53q34 -107 54.5 -176t31.5 -111.5t14.5 -63.5t3.5 -31q0 -30 -10 -56.5t-27 -48.5t-39 -38.5t-45 -26.5h-274q-11 11 -21 26t-22 35l-158 270q-23 38 -33 71.5t-10 61.5zM402 453h503v106h-399v254h334v105h-334v256h385v106 h-489v-827zM428 1784l152 -334h69l-100 334h-121z" />
<glyph unicode="&#xc9;" d="M-4 381v608q0 78 31 147.5t88.5 121.5t139.5 82t183 30h308q101 0 183 -30t139.5 -82t88.5 -121.5t31 -147.5v-608q0 -78 -31 -147.5t-88.5 -121.5t-139.5 -82t-183 -30h-308q-101 0 -183 30t-139.5 82t-88.5 121.5t-31 147.5zM387 1463q0 10 3 31t14 63.5t31.5 111.5 t55.5 176q12 31 35 53t54.5 35t70 19t80.5 6q56 0 109 -13t94.5 -38.5t66.5 -63t25 -86.5q-1 -28 -10.5 -61.5t-32.5 -71.5l-158 -270q-12 -20 -22 -35t-21 -26h-274q-23 10 -45 26.5t-39 38.5t-27 48.5t-10 56.5zM402 453h503v106h-399v254h334v105h-334v256h385v106h-489 v-827zM586 1450h69l152 334h-121z" />
<glyph unicode="&#xca;" d="M-4 381v608q0 78 31 147.5t88.5 121.5t139.5 82t183 30h308q101 0 183 -30t139.5 -82t88.5 -121.5t31 -147.5v-608q0 -78 -31 -147.5t-88.5 -121.5t-139.5 -82t-183 -30h-308q-101 0 -183 30t-139.5 82t-88.5 121.5t-31 147.5zM270 1456q0 36 14.5 88t38 111.5t52 122.5 t55.5 121q29 51 79 76.5t134 25.5q42 0 75 -7t59 -22.5t46.5 -41t38.5 -62.5q40 -86 72 -162q13 -33 26.5 -67.5t23.5 -66t16.5 -59t6.5 -46.5q0 -102 -69 -156h-607q-31 26 -46 64.5t-15 80.5zM402 453h503v106h-399v254h334v105h-334v256h385v106h-489v-827zM463 1467h81 l95 292l94 -292h82l-131 338h-90z" />
<glyph unicode="&#xcb;" d="M-4 381v608q0 78 31 147.5t88.5 121.5t139.5 82t183 30h308q101 0 183 -30t139.5 -82t88.5 -121.5t31 -147.5v-608q0 -78 -31 -147.5t-88.5 -121.5t-139.5 -82t-183 -30h-308q-101 0 -183 30t-139.5 82t-88.5 121.5t-31 147.5zM242 1563q0 60 28 114t80.5 95.5 t126.5 65.5t166 24t166.5 -24t127 -65.5t80.5 -95.5t28 -114q0 -79 -34.5 -143t-100.5 -107h-535q-66 43 -99.5 107.5t-33.5 142.5zM402 453h503v106h-399v254h334v105h-334v256h385v106h-489v-827zM439 1479h131v129h-131v-129zM701 1479h131v129h-131v-129z" />
<glyph unicode="&#xcc;" d="M-4 381v608q0 78 31 147.5t88.5 121.5t139.5 82t183 30h308q101 0 183 -30t139.5 -82t88.5 -121.5t31 -147.5v-608q0 -78 -31 -147.5t-88.5 -121.5t-139.5 -82t-183 -30h-308q-101 0 -183 30t-139.5 82t-88.5 121.5t-31 147.5zM217 1757q0 49 25 86.5t66 63t94.5 38.5 t109.5 13q42 0 80.5 -6t70 -19t54.5 -35t35 -53q34 -107 54.5 -176t31.5 -111.5t14.5 -63.5t3.5 -31q0 -30 -10 -56.5t-27 -48.5t-39 -38.5t-45 -26.5h-274q-11 11 -21 26t-22 35l-158 270q-23 38 -33 71.5t-10 61.5zM358 453h578v106h-235v615h235v106h-578v-106h236v-615 h-236v-106zM436 1784l152 -334h69l-100 334h-121z" />
<glyph unicode="&#xcd;" d="M-4 381v608q0 78 31 147.5t88.5 121.5t139.5 82t183 30h308q101 0 183 -30t139.5 -82t88.5 -121.5t31 -147.5v-608q0 -78 -31 -147.5t-88.5 -121.5t-139.5 -82t-183 -30h-308q-101 0 -183 30t-139.5 82t-88.5 121.5t-31 147.5zM358 453h578v106h-235v615h235v106h-578 v-106h236v-615h-236v-106zM395 1463q0 10 3 31t14 63.5t31.5 111.5t55.5 176q12 31 35 53t54.5 35t70 19t80.5 6q56 0 109 -13t94.5 -38.5t66.5 -63t25 -86.5q-1 -28 -10.5 -61.5t-32.5 -71.5l-158 -270q-12 -20 -22 -35t-21 -26h-274q-23 10 -45 26.5t-39 38.5t-27 48.5 t-10 56.5zM594 1450h69l152 334h-121z" />
<glyph unicode="&#xce;" d="M-4 381v608q0 78 31 147.5t88.5 121.5t139.5 82t183 30h308q101 0 183 -30t139.5 -82t88.5 -121.5t31 -147.5v-608q0 -78 -31 -147.5t-88.5 -121.5t-139.5 -82t-183 -30h-308q-101 0 -183 30t-139.5 82t-88.5 121.5t-31 147.5zM279 1456q0 36 14.5 88t38 111.5t52 122.5 t55.5 121q29 51 79 76.5t134 25.5q42 0 75 -7t59 -22.5t46.5 -41t38.5 -62.5q40 -86 72 -162q13 -33 26.5 -67.5t23.5 -66t16.5 -59t6.5 -46.5q0 -102 -69 -156h-607q-31 26 -46 64.5t-15 80.5zM358 453h578v106h-235v615h235v106h-578v-106h236v-615h-236v-106zM472 1467 h81l95 292l94 -292h82l-131 338h-90z" />
<glyph unicode="&#xcf;" d="M-4 381v608q0 78 31 147.5t88.5 121.5t139.5 82t183 30h308q101 0 183 -30t139.5 -82t88.5 -121.5t31 -147.5v-608q0 -78 -31 -147.5t-88.5 -121.5t-139.5 -82t-183 -30h-308q-101 0 -183 30t-139.5 82t-88.5 121.5t-31 147.5zM250 1563q0 60 28 114t80.5 95.5 t126.5 65.5t166 24t166.5 -24t127 -65.5t80.5 -95.5t28 -114q0 -79 -34.5 -143t-100.5 -107h-535q-66 43 -99.5 107.5t-33.5 142.5zM358 453h578v106h-235v615h235v106h-578v-106h236v-615h-236v-106zM447 1479h131v129h-131v-129zM709 1479h131v129h-131v-129z" />
<glyph unicode="&#xd0;" d="M-4 381v608q0 78 31 147.5t88.5 121.5t139.5 82t183 30h308q101 0 183 -30t139.5 -82t88.5 -121.5t31 -147.5v-608q0 -78 -31 -147.5t-88.5 -121.5t-139.5 -82t-183 -30h-308q-101 0 -183 30t-139.5 82t-88.5 121.5t-31 147.5zM256 842h72v-389h446l103 12l63 63l14 86 v504l-14 84l-63 64l-103 14h-446v-373h-72v-65zM432 559v283h84v65h-84v267h336l70 -11l10 -59v-479l-14 -56l-66 -10h-336z" />
<glyph unicode="&#xd1;" d="M-4 381v608q0 78 31 147.5t88.5 121.5t139.5 82t183 30h308q101 0 183 -30t139.5 -82t88.5 -121.5t31 -147.5v-608q0 -78 -31 -147.5t-88.5 -121.5t-139.5 -82t-183 -30h-308q-101 0 -183 30t-139.5 82t-88.5 121.5t-31 147.5zM160 1587q0 78 31 147t88.5 121t139.5 82 t183 30q102 0 183.5 -30t139.5 -82t89 -121t31 -147q0 -82 -34 -153.5t-97 -125.5h-621q-66 54 -99.5 124t-33.5 155zM322 453h106v710l78 13h240l69 -11l10 -59v-653h107v667l-14 84l-64 64l-102 12h-250l-180 -25v-802zM365 1431h90q8 38 18.5 52.5t24.5 14.5 q15 0 34.5 -11t46.5 -24.5t63 -24.5t83 -11q28 0 45 13.5t25.5 33.5t11 43t2.5 41v33h-90q-14 -45 -24.5 -60.5t-24.5 -15.5q-12 0 -28.5 10t-42 22.5t-62 22.5t-88.5 10q-29 0 -46 -16t-25.5 -38.5t-10.5 -45.5t-2 -37v-12z" />
<glyph unicode="&#xd2;" d="M-4 381v608q0 78 31 147.5t88.5 121.5t139.5 82t183 30h308q101 0 183 -30t139.5 -82t88.5 -121.5t31 -147.5v-608q0 -78 -31 -147.5t-88.5 -121.5t-139.5 -82t-183 -30h-308q-101 0 -183 30t-139.5 82t-88.5 121.5t-31 147.5zM203 1757q0 49 25 86.5t66 63t94.5 38.5 t109.5 13q42 0 80.5 -6t70 -19t54.5 -35t35 -53q34 -107 54.5 -176t31.5 -111.5t14.5 -63.5t3.5 -31q0 -30 -10 -56.5t-27 -48.5t-39 -38.5t-45 -26.5h-274q-11 11 -21 26t-22 35l-158 270q-23 38 -33 71.5t-10 61.5zM326 614l12 -86l66 -63l100 -12h268l103 12l63 63l14 86 v504l-14 84l-63 64l-103 14h-268l-102 -14l-64 -64l-12 -84v-504zM422 1784l152 -334h69l-100 334h-121zM430 629v479l10 55l70 11h256l70 -11l10 -59v-479l-14 -56l-66 -10h-256l-65 10z" />
<glyph unicode="&#xd3;" d="M-4 381v608q0 78 31 147.5t88.5 121.5t139.5 82t183 30h308q101 0 183 -30t139.5 -82t88.5 -121.5t31 -147.5v-608q0 -78 -31 -147.5t-88.5 -121.5t-139.5 -82t-183 -30h-308q-101 0 -183 30t-139.5 82t-88.5 121.5t-31 147.5zM326 614l12 -86l66 -63l100 -12h268l103 12 l63 63l14 86v504l-14 84l-63 64l-103 14h-268l-102 -14l-64 -64l-12 -84v-504zM381 1463q0 10 3 31t14 63.5t31.5 111.5t55.5 176q12 31 35 53t54.5 35t70 19t80.5 6q56 0 109 -13t94.5 -38.5t66.5 -63t25 -86.5q-1 -28 -10.5 -61.5t-32.5 -71.5l-158 -270q-12 -20 -22 -35 t-21 -26h-274q-23 10 -45 26.5t-39 38.5t-27 48.5t-10 56.5zM430 629v479l10 55l70 11h256l70 -11l10 -59v-479l-14 -56l-66 -10h-256l-65 10zM580 1450h69l152 334h-121z" />
<glyph unicode="&#xd4;" d="M-4 381v608q0 78 31 147.5t88.5 121.5t139.5 82t183 30h308q101 0 183 -30t139.5 -82t88.5 -121.5t31 -147.5v-608q0 -78 -31 -147.5t-88.5 -121.5t-139.5 -82t-183 -30h-308q-101 0 -183 30t-139.5 82t-88.5 121.5t-31 147.5zM264 1456q0 36 14.5 88t38 111.5t52 122.5 t55.5 121q29 51 79 76.5t134 25.5q42 0 75 -7t59 -22.5t46.5 -41t38.5 -62.5q40 -86 72 -162q13 -33 26.5 -67.5t23.5 -66t16.5 -59t6.5 -46.5q0 -102 -69 -156h-607q-31 26 -46 64.5t-15 80.5zM326 614l12 -86l66 -63l100 -12h268l103 12l63 63l14 86v504l-14 84l-63 64 l-103 14h-268l-102 -14l-64 -64l-12 -84v-504zM430 629v479l10 55l70 11h256l70 -11l10 -59v-479l-14 -56l-66 -10h-256l-65 10zM457 1467h81l95 292l94 -292h82l-131 338h-90z" />
<glyph unicode="&#xd5;" d="M-4 381v608q0 78 31 147.5t88.5 121.5t139.5 82t183 30h308q101 0 183 -30t139.5 -82t88.5 -121.5t31 -147.5v-608q0 -78 -31 -147.5t-88.5 -121.5t-139.5 -82t-183 -30h-308q-101 0 -183 30t-139.5 82t-88.5 121.5t-31 147.5zM195 1590q0 78 31 147t88.5 121t139.5 82 t183 30q102 0 183.5 -30t139.5 -82t89 -121t31 -147q0 -82 -34 -153.5t-97 -125.5h-621q-66 54 -99.5 124t-33.5 155zM326 614l12 -86l66 -63l100 -12h268l103 12l63 63l14 86v504l-14 84l-63 64l-103 14h-268l-102 -14l-64 -64l-12 -84v-504zM400 1434h90q8 38 18.5 52.5 t24.5 14.5q15 0 34.5 -11t46.5 -24.5t63 -24.5t83 -11q28 0 45 13.5t25.5 33.5t11 43t2.5 41v33h-90q-14 -45 -24.5 -60.5t-24.5 -15.5q-12 0 -28.5 10t-42 22.5t-62 22.5t-88.5 10q-29 0 -46 -16t-25.5 -38.5t-10.5 -45.5t-2 -37v-12zM430 629v479l10 55l70 11h256l70 -11 l10 -59v-479l-14 -56l-66 -10h-256l-65 10z" />
<glyph unicode="&#xd6;" d="M-4 381v608q0 78 31 147.5t88.5 121.5t139.5 82t183 30h308q101 0 183 -30t139.5 -82t88.5 -121.5t31 -147.5v-608q0 -78 -31 -147.5t-88.5 -121.5t-139.5 -82t-183 -30h-308q-101 0 -183 30t-139.5 82t-88.5 121.5t-31 147.5zM236 1563q0 60 28 114t80.5 95.5 t126.5 65.5t166 24t166.5 -24t127 -65.5t80.5 -95.5t28 -114q0 -79 -34.5 -143t-100.5 -107h-535q-66 43 -99.5 107.5t-33.5 142.5zM326 614l12 -86l66 -63l100 -12h268l103 12l63 63l14 86v504l-14 84l-63 64l-103 14h-268l-102 -14l-64 -64l-12 -84v-504zM430 629v479 l10 55l70 11h256l70 -11l10 -59v-479l-14 -56l-66 -10h-256l-65 10zM433 1479h131v129h-131v-129zM695 1479h131v129h-131v-129z" />
<glyph unicode="&#xd7;" d="M-4 381v608q0 78 31 147.5t88.5 121.5t139.5 82t183 30h308q101 0 183 -30t139.5 -82t88.5 -121.5t31 -147.5v-608q0 -78 -31 -147.5t-88.5 -121.5t-139.5 -82t-183 -30h-308q-101 0 -183 30t-139.5 82t-88.5 121.5t-31 147.5zM437 739l57 -59l139 138l139 -140l59 61 l-139 140l139 139l-59 59l-139 -139l-137 137l-59 -61l137 -137z" />
<glyph unicode="&#xd8;" d="M-4 381v608q0 78 31 147.5t88.5 121.5t139.5 82t183 30h308q101 0 183 -30t139.5 -82t88.5 -121.5t31 -147.5v-608q0 -78 -31 -147.5t-88.5 -121.5t-139.5 -82t-183 -30h-308q-101 0 -183 30t-139.5 82t-88.5 121.5t-31 147.5zM313 620l14 -86l65 -64l101 -12h268l103 12 l63 64l14 86v500l-14 83l-63 64l-103 14h-268l-103 -14l-63 -64l-14 -83v-500zM419 640v469l10 56l70 10h258q3 0 8 -1t8 -1zM485 567l350 542v-479l-14 -55l-66 -10h-260q-3 0 -5.5 1t-4.5 1z" />
<glyph unicode="&#xd9;" d="M-4 381v608q0 78 31 147.5t88.5 121.5t139.5 82t183 30h308q101 0 183 -30t139.5 -82t88.5 -121.5t31 -147.5v-608q0 -78 -31 -147.5t-88.5 -121.5t-139.5 -82t-183 -30h-308q-101 0 -183 30t-139.5 82t-88.5 121.5t-31 147.5zM209 1757q0 49 25 86.5t66 63t94.5 38.5 t109.5 13q42 0 80.5 -6t70 -19t54.5 -35t35 -53q34 -107 54.5 -176t31.5 -111.5t14.5 -63.5t3.5 -31q0 -30 -10 -56.5t-27 -48.5t-39 -38.5t-45 -26.5h-274q-11 11 -21 26t-22 35l-158 270q-23 38 -33 71.5t-10 61.5zM320 614l12 -86l65 -63l101 -12h268l102 12l64 63l14 86 v666h-106v-655q-2 -13 -6.5 -28t-8.5 -28l-65 -10h-256l-66 10l-14 60v651h-104v-666zM428 1784l152 -334h69l-100 334h-121z" />
<glyph unicode="&#xda;" d="M-4 381v608q0 78 31 147.5t88.5 121.5t139.5 82t183 30h308q101 0 183 -30t139.5 -82t88.5 -121.5t31 -147.5v-608q0 -78 -31 -147.5t-88.5 -121.5t-139.5 -82t-183 -30h-308q-101 0 -183 30t-139.5 82t-88.5 121.5t-31 147.5zM320 614l12 -86l65 -63l101 -12h268l102 12 l64 63l14 86v666h-106v-655q-2 -13 -6.5 -28t-8.5 -28l-65 -10h-256l-66 10l-14 60v651h-104v-666zM387 1463q0 10 3 31t14 63.5t31.5 111.5t55.5 176q12 31 35 53t54.5 35t70 19t80.5 6q56 0 109 -13t94.5 -38.5t66.5 -63t25 -86.5q-1 -28 -10.5 -61.5t-32.5 -71.5 l-158 -270q-12 -20 -22 -35t-21 -26h-274q-23 10 -45 26.5t-39 38.5t-27 48.5t-10 56.5zM586 1450h69l152 334h-121z" />
<glyph unicode="&#xdb;" d="M-4 381v608q0 78 31 147.5t88.5 121.5t139.5 82t183 30h308q101 0 183 -30t139.5 -82t88.5 -121.5t31 -147.5v-608q0 -78 -31 -147.5t-88.5 -121.5t-139.5 -82t-183 -30h-308q-101 0 -183 30t-139.5 82t-88.5 121.5t-31 147.5zM270 1456q0 36 14.5 88t38 111.5t52 122.5 t55.5 121q29 51 79 76.5t134 25.5q42 0 75 -7t59 -22.5t46.5 -41t38.5 -62.5q40 -86 72 -162q13 -33 26.5 -67.5t23.5 -66t16.5 -59t6.5 -46.5q0 -102 -69 -156h-607q-31 26 -46 64.5t-15 80.5zM320 614l12 -86l65 -63l101 -12h268l102 12l64 63l14 86v666h-106v-655 q-2 -13 -6.5 -28t-8.5 -28l-65 -10h-256l-66 10l-14 60v651h-104v-666zM463 1467h81l95 292l94 -292h82l-131 338h-90z" />
<glyph unicode="&#xdc;" d="M-4 381v608q0 78 31 147.5t88.5 121.5t139.5 82t183 30h308q101 0 183 -30t139.5 -82t88.5 -121.5t31 -147.5v-608q0 -78 -31 -147.5t-88.5 -121.5t-139.5 -82t-183 -30h-308q-101 0 -183 30t-139.5 82t-88.5 121.5t-31 147.5zM242 1563q0 60 28 114t80.5 95.5 t126.5 65.5t166 24t166.5 -24t127 -65.5t80.5 -95.5t28 -114q0 -79 -34.5 -143t-100.5 -107h-535q-66 43 -99.5 107.5t-33.5 142.5zM320 614l12 -86l65 -63l101 -12h268l102 12l64 63l14 86v666h-106v-655q-2 -13 -6.5 -28t-8.5 -28l-65 -10h-256l-66 10l-14 60v651h-104 v-666zM439 1479h131v129h-131v-129zM701 1479h131v129h-131v-129z" />
<glyph unicode="&#xdd;" d="M-4 381v608q0 78 31 147.5t88.5 121.5t139.5 82t183 30h308q101 0 183 -30t139.5 -82t88.5 -121.5t31 -147.5v-608q0 -78 -31 -147.5t-88.5 -121.5t-139.5 -82t-183 -30h-308q-101 0 -183 30t-139.5 82t-88.5 121.5t-31 147.5zM334 1280l250 -594v-233h106v231l254 596 h-125l-182 -449l-178 449h-125zM383 1463q0 10 3 31t14 63.5t31.5 111.5t55.5 176q12 31 35 53t54.5 35t70 19t80.5 6q56 0 109 -13t94.5 -38.5t66.5 -63t25 -86.5q-1 -28 -10.5 -61.5t-32.5 -71.5l-158 -270q-12 -20 -22 -35t-21 -26h-274q-23 10 -45 26.5t-39 38.5 t-27 48.5t-10 56.5zM582 1450h69l152 334h-121z" />
<glyph unicode="&#xde;" d="M-4 381v608q0 78 31 147.5t88.5 121.5t139.5 82t183 30h308q101 0 183 -30t139.5 -82t88.5 -121.5t31 -147.5v-608q0 -78 -31 -147.5t-88.5 -121.5t-139.5 -82t-183 -30h-308q-101 0 -183 30t-139.5 82t-88.5 121.5t-31 147.5zM377 453h104v231h269l102 12l64 64l14 86 v127l-14 84l-64 63l-102 15h-269v176h-104v-858zM481 791v237h263l69 -10l10 -60v-102l-14 -55l-65 -10h-263z" />
<glyph unicode="&#xdf;" d="M-4 381v608q0 78 31 147.5t88.5 121.5t139.5 82t183 30h308q101 0 183 -30t139.5 -82t88.5 -121.5t31 -147.5v-608q0 -78 -31 -147.5t-88.5 -121.5t-139.5 -82t-183 -30h-308q-101 0 -183 30t-139.5 82t-88.5 121.5t-31 147.5zM320 453h106v655q2 12 6.5 26.5t7.5 26.5 l60 13h217l61 -11l15 -53v-96q-2 -13 -7 -27t-8 -26l-65 -13h-37v-106h84l65 -15l15 -55v-147q-3 -16 -7 -28t-8 -28l-63 -10h-211v-106h217l100 12l66 63l12 86v152l-35 100q-5 1 -17 6.5t-26 12t-26.5 12.5t-18.5 8l29 29l47 88v98l-14 84l-66 64l-100 12h-221l-101 -14 l-63 -64l-14 -84v-665z" />
<glyph unicode="&#xe0;" d="M-4 381v608q0 78 31 147.5t88.5 121.5t139.5 82t183 30h308q101 0 183 -30t139.5 -82t88.5 -121.5t31 -147.5v-608q0 -78 -31 -147.5t-88.5 -121.5t-139.5 -82t-183 -30h-308q-101 0 -183 30t-139.5 82t-88.5 121.5t-31 147.5zM207 1757q0 49 25 86.5t66 63t94.5 38.5 t109.5 13q42 0 80.5 -6t70 -19t54.5 -35t35 -53q34 -107 54.5 -176t31.5 -111.5t14.5 -63.5t3.5 -31q0 -30 -10 -56.5t-27 -48.5t-39 -38.5t-45 -26.5h-274q-11 11 -21 26t-22 35l-158 270q-23 38 -33 71.5t-10 61.5zM295 612l14 -84l64 -63l100 -12h219l78 12l99 -11v228 v438v84l-68 64l-100 12h-228l-117 -14l25 -109l94 19h223l60 -13l14 -53v-233l-71 12h-228l-100 -15l-64 -63l-14 -82v-117zM402 629v86l8 57l69 10h217l76 -8v-151v-54l-78 -10h-215l-63 10zM426 1784l152 -334h69l-100 334h-121z" />
<glyph unicode="&#xe1;" d="M-4 381v608q0 78 31 147.5t88.5 121.5t139.5 82t183 30h308q101 0 183 -30t139.5 -82t88.5 -121.5t31 -147.5v-608q0 -78 -31 -147.5t-88.5 -121.5t-139.5 -82t-183 -30h-308q-101 0 -183 30t-139.5 82t-88.5 121.5t-31 147.5zM295 612l14 -84l64 -63l100 -12h219l78 12 l99 -11v228v438v84l-68 64l-100 12h-228l-117 -14l25 -109l94 19h223l60 -13l14 -53v-233l-71 12h-228l-100 -15l-64 -63l-14 -82v-117zM385 1463q0 10 3 31t14 63.5t31.5 111.5t55.5 176q12 31 35 53t54.5 35t70 19t80.5 6q56 0 109 -13t94.5 -38.5t66.5 -63t25 -86.5 q-1 -28 -10.5 -61.5t-32.5 -71.5l-158 -270q-12 -20 -22 -35t-21 -26h-274q-23 10 -45 26.5t-39 38.5t-27 48.5t-10 56.5zM402 629v86l8 57l69 10h217l76 -8v-151v-54l-78 -10h-215l-63 10zM584 1450h69l152 334h-121z" />
<glyph unicode="&#xe2;" d="M-4 381v608q0 78 31 147.5t88.5 121.5t139.5 82t183 30h308q101 0 183 -30t139.5 -82t88.5 -121.5t31 -147.5v-608q0 -78 -31 -147.5t-88.5 -121.5t-139.5 -82t-183 -30h-308q-101 0 -183 30t-139.5 82t-88.5 121.5t-31 147.5zM268 1456q0 36 14.5 88t38 111.5t52 122.5 t55.5 121q29 51 79 76.5t134 25.5q42 0 75 -7t59 -22.5t46.5 -41t38.5 -62.5q40 -86 72 -162q13 -33 26.5 -67.5t23.5 -66t16.5 -59t6.5 -46.5q0 -102 -69 -156h-607q-31 26 -46 64.5t-15 80.5zM295 612l14 -84l64 -63l100 -12h219l78 12l99 -11v228v438v84l-68 64l-100 12 h-228l-117 -14l25 -109l94 19h223l60 -13l14 -53v-233l-71 12h-228l-100 -15l-64 -63l-14 -82v-117zM402 629v86l8 57l69 10h217l76 -8v-151v-54l-78 -10h-215l-63 10zM461 1467h81l95 292l94 -292h82l-131 338h-90z" />
<glyph unicode="&#xe3;" d="M-4 381v608q0 78 31 147.5t88.5 121.5t139.5 82t183 30h308q101 0 183 -30t139.5 -82t88.5 -121.5t31 -147.5v-608q0 -78 -31 -147.5t-88.5 -121.5t-139.5 -82t-183 -30h-308q-101 0 -183 30t-139.5 82t-88.5 121.5t-31 147.5zM199 1590q0 78 31 147t88.5 121t139.5 82 t183 30q102 0 183.5 -30t139.5 -82t89 -121t31 -147q0 -82 -34 -153.5t-97 -125.5h-621q-66 54 -99.5 124t-33.5 155zM295 612l14 -84l64 -63l100 -12h219l78 12l99 -11v228v438v84l-68 64l-100 12h-228l-117 -14l25 -109l94 19h223l60 -13l14 -53v-233l-71 12h-228 l-100 -15l-64 -63l-14 -82v-117zM402 629v86l8 57l69 10h217l76 -8v-151v-54l-78 -10h-215l-63 10zM404 1434h90q8 38 18.5 52.5t24.5 14.5q15 0 34.5 -11t46.5 -24.5t63 -24.5t83 -11q28 0 45 13.5t25.5 33.5t11 43t2.5 41v33h-90q-14 -45 -24.5 -60.5t-24.5 -15.5 q-12 0 -28.5 10t-42 22.5t-62 22.5t-88.5 10q-29 0 -46 -16t-25.5 -38.5t-10.5 -45.5t-2 -37v-12z" />
<glyph unicode="&#xe4;" d="M-4 381v608q0 78 31 147.5t88.5 121.5t139.5 82t183 30h308q101 0 183 -30t139.5 -82t88.5 -121.5t31 -147.5v-608q0 -78 -31 -147.5t-88.5 -121.5t-139.5 -82t-183 -30h-308q-101 0 -183 30t-139.5 82t-88.5 121.5t-31 147.5zM240 1563q0 60 28 114t80.5 95.5 t126.5 65.5t166 24t166.5 -24t127 -65.5t80.5 -95.5t28 -114q0 -79 -34.5 -143t-100.5 -107h-535q-66 43 -99.5 107.5t-33.5 142.5zM295 612l14 -84l64 -63l100 -12h219l78 12l99 -11v228v438v84l-68 64l-100 12h-228l-117 -14l25 -109l94 19h223l60 -13l14 -53v-233l-71 12 h-228l-100 -15l-64 -63l-14 -82v-117zM402 629v86l8 57l69 10h217l76 -8v-151v-54l-78 -10h-215l-63 10zM437 1479h131v129h-131v-129zM699 1479h131v129h-131v-129z" />
<glyph unicode="&#xe5;" d="M-4 381v608q0 78 31 147.5t88.5 121.5t139.5 82t183 30h308q101 0 183 -30t139.5 -82t88.5 -121.5t31 -147.5v-608q0 -78 -31 -147.5t-88.5 -121.5t-139.5 -82t-183 -30h-308q-101 0 -183 30t-139.5 82t-88.5 121.5t-31 147.5zM250 1567q0 78 26.5 147.5t76 121.5t120 82 t158.5 30q87 0 157.5 -30t120 -82t76.5 -121.5t27 -147.5q0 -75 -23 -140t-65 -116h-586q-45 51 -66.5 117.5t-21.5 138.5zM295 612l14 -84l64 -63l100 -12h219l78 12l99 -11v228v438v84l-68 64l-100 12h-228l-117 -14l25 -109l94 19h223l60 -13l14 -53v-233l-71 12h-228 l-100 -15l-64 -63l-14 -82v-117zM402 629v86l8 57l69 10h217l76 -8v-151v-54l-78 -10h-215l-63 10zM457 1610l12 -98l53 -54l74 -12h68l71 12l58 56l8 86l-8 98l-58 53l-71 15h-68l-74 -15l-53 -53zM535 1606l10 70l59 10h54l55 -15l10 -65l-10 -66l-60 -14h-53l-55 10z" />
<glyph unicode="&#xe6;" d="M-4 381v608q0 78 31 147.5t88.5 121.5t139.5 82t183 30h308q101 0 183 -30t139.5 -82t88.5 -121.5t31 -147.5v-608q0 -78 -31 -147.5t-88.5 -121.5t-139.5 -82t-183 -30h-308q-101 0 -183 30t-139.5 82t-88.5 121.5t-31 147.5zM248 459h106l17 131h205v-131h368v104h-262 v256h262v105h-262v252h262v106h-420l-133 -20l-61 -62zM383 696l49 465q28 3 48.5 7t47.5 8h48v-480h-193z" />
<glyph unicode="&#xe7;" d="M-4 381v608q0 78 31 147.5t88.5 121.5t139.5 82t183 30h308q101 0 183 -30t139.5 -82t88.5 -121.5t31 -147.5v-608q0 -78 -31 -147.5t-88.5 -121.5t-139.5 -82t-183 -30h-308q-101 0 -183 30t-139.5 82t-88.5 121.5t-31 147.5zM311 612l15 -84l65 -63l101 -12h94v-35h-71 l-58 -61l-12 -57v-19l12 -78l60 -59l143 -12v90l-111 10l-14 59l10 35l111 10v117h77l117 14l-25 108l-94 -16h-233l-66 10l-14 60v481l10 55l70 11h229l103 -17l20 107l-117 14h-184l-160 -12l-63 -64l-15 -84v-508z" />
<glyph unicode="&#xe8;" d="M-4 381v608q0 78 31 147.5t88.5 121.5t139.5 82t183 30h308q101 0 183 -30t139.5 -82t88.5 -121.5t31 -147.5v-608q0 -78 -31 -147.5t-88.5 -121.5t-139.5 -82t-183 -30h-308q-101 0 -183 30t-139.5 82t-88.5 121.5t-31 147.5zM200 1779q0 49 25 86.5t66 63t94.5 38.5 t109.5 13q42 0 80.5 -6t70 -19t54.5 -35t35 -53q34 -107 54.5 -176t31.5 -111.5t14.5 -63.5t3.5 -31q0 -30 -10 -56.5t-27 -48.5t-39 -38.5t-45 -26.5h-274q-11 11 -21 26t-22 35l-158 270q-23 38 -33 71.5t-10 61.5zM303 645l15 -84l63 -63l100 -13h252l117 15l-25 108 l-94 -16h-243l-64 10l-14 60v206h467v252l-15 84l-63 64l-101 12h-217l-100 -12l-63 -64l-15 -84v-475zM410 973v135l8 57l70 11h204l68 -11l10 -59v-133h-360zM419 1806l152 -334h69l-100 334h-121z" />
<glyph unicode="&#xe9;" d="M-4 381v608q0 78 31 147.5t88.5 121.5t139.5 82t183 30h308q101 0 183 -30t139.5 -82t88.5 -121.5t31 -147.5v-608q0 -78 -31 -147.5t-88.5 -121.5t-139.5 -82t-183 -30h-308q-101 0 -183 30t-139.5 82t-88.5 121.5t-31 147.5zM303 645l15 -84l63 -63l100 -13h252l117 15 l-25 108l-94 -16h-243l-64 10l-14 60v206h467v252l-15 84l-63 64l-101 12h-217l-100 -12l-63 -64l-15 -84v-475zM358 1488q0 10 3 31t14 63.5t31.5 111.5t55.5 176q12 31 35 53t54.5 35t70 19t80.5 6q56 0 109 -13t94.5 -38.5t66.5 -63t25 -86.5q-1 -28 -10.5 -61.5 t-32.5 -71.5l-158 -270q-12 -20 -22 -35t-21 -26h-274q-23 10 -45 26.5t-39 38.5t-27 48.5t-10 56.5zM410 973v135l8 57l70 11h204l68 -11l10 -59v-133h-360zM557 1475h69l152 334h-121z" />
<glyph unicode="&#xea;" d="M-4 381v608q0 78 31 147.5t88.5 121.5t139.5 82t183 30h308q101 0 183 -30t139.5 -82t88.5 -121.5t31 -147.5v-608q0 -78 -31 -147.5t-88.5 -121.5t-139.5 -82t-183 -30h-308q-101 0 -183 30t-139.5 82t-88.5 121.5t-31 147.5zM225 1454q0 36 14.5 88t38 111.5t52 122.5 t55.5 121q29 51 79 76.5t134 25.5q42 0 75 -7t59 -22.5t46.5 -41t38.5 -62.5q40 -86 72 -162q13 -33 26.5 -67.5t23.5 -66t16.5 -59t6.5 -46.5q0 -102 -69 -156h-607q-31 26 -46 64.5t-15 80.5zM303 645l15 -84l63 -63l100 -13h252l117 15l-25 108l-94 -16h-243l-64 10 l-14 60v206h467v252l-15 84l-63 64l-101 12h-217l-100 -12l-63 -64l-15 -84v-475zM410 973v135l8 57l70 11h204l68 -11l10 -59v-133h-360zM418 1465h81l95 292l94 -292h82l-131 338h-90z" />
<glyph unicode="&#xeb;" d="M-4 381v608q0 78 31 147.5t88.5 121.5t139.5 82t183 30h308q101 0 183 -30t139.5 -82t88.5 -121.5t31 -147.5v-608q0 -78 -31 -147.5t-88.5 -121.5t-139.5 -82t-183 -30h-308q-101 0 -183 30t-139.5 82t-88.5 121.5t-31 147.5zM185 1569q0 60 28 114t80.5 95.5 t126.5 65.5t166 24t166.5 -24t127 -65.5t80.5 -95.5t28 -114q0 -79 -34.5 -143t-100.5 -107h-535q-66 43 -99.5 107.5t-33.5 142.5zM303 645l15 -84l63 -63l100 -13h252l117 15l-25 108l-94 -16h-243l-64 10l-14 60v206h467v252l-15 84l-63 64l-101 12h-217l-100 -12 l-63 -64l-15 -84v-475zM382 1485h131v129h-131v-129zM410 973v135l8 57l70 11h204l68 -11l10 -59v-133h-360zM644 1485h131v129h-131v-129z" />
<glyph unicode="&#xec;" d="M-4 381v608q0 78 31 147.5t88.5 121.5t139.5 82t183 30h308q101 0 183 -30t139.5 -82t88.5 -121.5t31 -147.5v-608q0 -78 -31 -147.5t-88.5 -121.5t-139.5 -82t-183 -30h-308q-101 0 -183 30t-139.5 82t-88.5 121.5t-31 147.5zM211 1757q0 49 25 86.5t66 63t94.5 38.5 t109.5 13q42 0 80.5 -6t70 -19t54.5 -35t35 -53q34 -107 54.5 -176t31.5 -111.5t14.5 -63.5t3.5 -31q0 -30 -10 -56.5t-27 -48.5t-39 -38.5t-45 -26.5h-274q-11 11 -21 26t-22 35l-158 270q-23 38 -33 71.5t-10 61.5zM358 453h578v106h-235v615h235v106h-578v-106h236v-615 h-236v-106zM430 1784l152 -334h69l-100 334h-121z" />
<glyph unicode="&#xed;" d="M-4 381v608q0 78 31 147.5t88.5 121.5t139.5 82t183 30h308q101 0 183 -30t139.5 -82t88.5 -121.5t31 -147.5v-608q0 -78 -31 -147.5t-88.5 -121.5t-139.5 -82t-183 -30h-308q-101 0 -183 30t-139.5 82t-88.5 121.5t-31 147.5zM358 453h578v106h-235v615h235v106h-578 v-106h236v-615h-236v-106zM389 1463q0 10 3 31t14 63.5t31.5 111.5t55.5 176q12 31 35 53t54.5 35t70 19t80.5 6q56 0 109 -13t94.5 -38.5t66.5 -63t25 -86.5q-1 -28 -10.5 -61.5t-32.5 -71.5l-158 -270q-12 -20 -22 -35t-21 -26h-274q-23 10 -45 26.5t-39 38.5t-27 48.5 t-10 56.5zM588 1450h69l152 334h-121z" />
<glyph unicode="&#xee;" d="M-4 381v608q0 78 31 147.5t88.5 121.5t139.5 82t183 30h308q101 0 183 -30t139.5 -82t88.5 -121.5t31 -147.5v-608q0 -78 -31 -147.5t-88.5 -121.5t-139.5 -82t-183 -30h-308q-101 0 -183 30t-139.5 82t-88.5 121.5t-31 147.5zM272 1456q0 36 14.5 88t38 111.5t52 122.5 t55.5 121q29 51 79 76.5t134 25.5q42 0 75 -7t59 -22.5t46.5 -41t38.5 -62.5q40 -86 72 -162q13 -33 26.5 -67.5t23.5 -66t16.5 -59t6.5 -46.5q0 -102 -69 -156h-607q-31 26 -46 64.5t-15 80.5zM358 453h578v106h-235v615h235v106h-578v-106h236v-615h-236v-106zM465 1467 h81l95 292l94 -292h82l-131 338h-90z" />
<glyph unicode="&#xef;" d="M-4 381v608q0 78 31 147.5t88.5 121.5t139.5 82t183 30h308q101 0 183 -30t139.5 -82t88.5 -121.5t31 -147.5v-608q0 -78 -31 -147.5t-88.5 -121.5t-139.5 -82t-183 -30h-308q-101 0 -183 30t-139.5 82t-88.5 121.5t-31 147.5zM244 1563q0 60 28 114t80.5 95.5 t126.5 65.5t166 24t166.5 -24t127 -65.5t80.5 -95.5t28 -114q0 -79 -34.5 -143t-100.5 -107h-535q-66 43 -99.5 107.5t-33.5 142.5zM358 453h578v106h-235v615h235v106h-578v-106h236v-615h-236v-106zM441 1479h131v129h-131v-129zM703 1479h131v129h-131v-129z" />
<glyph unicode="&#xf0;" d="M-4 381v608q0 78 31 147.5t88.5 121.5t139.5 82t183 30h308q101 0 183 -30t139.5 -82t88.5 -121.5t31 -147.5v-608q0 -78 -31 -147.5t-88.5 -121.5t-139.5 -82t-183 -30h-308q-101 0 -183 30t-139.5 82t-88.5 121.5t-31 147.5zM256 842h72v-389h446l103 12l63 63l14 86 v504l-14 84l-63 64l-103 14h-446v-373h-72v-65zM432 559v283h84v65h-84v267h336l70 -11l10 -59v-479l-14 -56l-66 -10h-336z" />
<glyph unicode="&#xf1;" d="M-4 381v608q0 78 31 147.5t88.5 121.5t139.5 82t183 30h308q101 0 183 -30t139.5 -82t88.5 -121.5t31 -147.5v-608q0 -78 -31 -147.5t-88.5 -121.5t-139.5 -82t-183 -30h-308q-101 0 -183 30t-139.5 82t-88.5 121.5t-31 147.5zM158 1593q0 78 31 147t88.5 121t139.5 82 t183 30q102 0 183.5 -30t139.5 -82t89 -121t31 -147q0 -82 -34 -153.5t-97 -125.5h-621q-66 54 -99.5 124t-33.5 155zM322 453h106v710l78 13h240l69 -11l10 -59v-653h107v667l-14 84l-64 64l-102 12h-250l-180 -25v-802zM363 1437h90q8 38 18.5 52.5t24.5 14.5 q15 0 34.5 -11t46.5 -24.5t63 -24.5t83 -11q28 0 45 13.5t25.5 33.5t11 43t2.5 41v33h-90q-14 -45 -24.5 -60.5t-24.5 -15.5q-12 0 -28.5 10t-42 22.5t-62 22.5t-88.5 10q-29 0 -46 -16t-25.5 -38.5t-10.5 -45.5t-2 -37v-12z" />
<glyph unicode="&#xf3;" d="M-4 381v608q0 78 31 147.5t88.5 121.5t139.5 82t183 30h308q101 0 183 -30t139.5 -82t88.5 -121.5t31 -147.5v-608q0 -78 -31 -147.5t-88.5 -121.5t-139.5 -82t-183 -30h-308q-101 0 -183 30t-139.5 82t-88.5 121.5t-31 147.5zM326 614l12 -86l66 -63l100 -12h268l103 12 l63 63l14 86v504l-14 84l-63 64l-103 14h-268l-102 -14l-64 -64l-12 -84v-504zM361 1471q0 10 3 31t14 63.5t31.5 111.5t55.5 176q12 31 35 53t54.5 35t70 19t80.5 6q56 0 109 -13t94.5 -38.5t66.5 -63t25 -86.5q-1 -28 -10.5 -61.5t-32.5 -71.5l-158 -270q-12 -20 -22 -35 t-21 -26h-274q-23 10 -45 26.5t-39 38.5t-27 48.5t-10 56.5zM430 629v479l10 55l70 11h256l70 -11l10 -59v-479l-14 -56l-66 -10h-256l-65 10zM560 1458h69l152 334h-121z" />
<glyph unicode="&#xf4;" d="M-4 381v608q0 78 31 147.5t88.5 121.5t139.5 82t183 30h308q101 0 183 -30t139.5 -82t88.5 -121.5t31 -147.5v-608q0 -78 -31 -147.5t-88.5 -121.5t-139.5 -82t-183 -30h-308q-101 0 -183 30t-139.5 82t-88.5 121.5t-31 147.5zM269 1451q0 36 14.5 88t38 111.5t52 122.5 t55.5 121q29 51 79 76.5t134 25.5q42 0 75 -7t59 -22.5t46.5 -41t38.5 -62.5q40 -86 72 -162q13 -33 26.5 -67.5t23.5 -66t16.5 -59t6.5 -46.5q0 -102 -69 -156h-607q-31 26 -46 64.5t-15 80.5zM326 614l12 -86l66 -63l100 -12h268l103 12l63 63l14 86v504l-14 84l-63 64 l-103 14h-268l-102 -14l-64 -64l-12 -84v-504zM430 629v479l10 55l70 11h256l70 -11l10 -59v-479l-14 -56l-66 -10h-256l-65 10zM462 1462h81l95 292l94 -292h82l-131 338h-90z" />
<glyph unicode="&#xf5;" d="M-4 381v608q0 78 31 147.5t88.5 121.5t139.5 82t183 30h308q101 0 183 -30t139.5 -82t88.5 -121.5t31 -147.5v-608q0 -78 -31 -147.5t-88.5 -121.5t-139.5 -82t-183 -30h-308q-101 0 -183 30t-139.5 82t-88.5 121.5t-31 147.5zM187 1584q0 78 31 147t88.5 121t139.5 82 t183 30q102 0 183.5 -30t139.5 -82t89 -121t31 -147q0 -82 -34 -153.5t-97 -125.5h-621q-66 54 -99.5 124t-33.5 155zM326 614l12 -86l66 -63l100 -12h268l103 12l63 63l14 86v504l-14 84l-63 64l-103 14h-268l-102 -14l-64 -64l-12 -84v-504zM392 1428h90q8 38 18.5 52.5 t24.5 14.5q15 0 34.5 -11t46.5 -24.5t63 -24.5t83 -11q28 0 45 13.5t25.5 33.5t11 43t2.5 41v33h-90q-14 -45 -24.5 -60.5t-24.5 -15.5q-12 0 -28.5 10t-42 22.5t-62 22.5t-88.5 10q-29 0 -46 -16t-25.5 -38.5t-10.5 -45.5t-2 -37v-12zM430 629v479l10 55l70 11h256l70 -11 l10 -59v-479l-14 -56l-66 -10h-256l-65 10z" />
<glyph unicode="&#xf6;" d="M-4 381v608q0 78 31 147.5t88.5 121.5t139.5 82t183 30h308q101 0 183 -30t139.5 -82t88.5 -121.5t31 -147.5v-608q0 -78 -31 -147.5t-88.5 -121.5t-139.5 -82t-183 -30h-308q-101 0 -183 30t-139.5 82t-88.5 121.5t-31 147.5zM242 1553q0 60 28 114t80.5 95.5 t126.5 65.5t166 24t166.5 -24t127 -65.5t80.5 -95.5t28 -114q0 -79 -34.5 -143t-100.5 -107h-535q-66 43 -99.5 107.5t-33.5 142.5zM326 614l12 -86l66 -63l100 -12h268l103 12l63 63l14 86v504l-14 84l-63 64l-103 14h-268l-102 -14l-64 -64l-12 -84v-504zM430 629v479 l10 55l70 11h256l70 -11l10 -59v-479l-14 -56l-66 -10h-256l-65 10zM439 1469h131v129h-131v-129zM701 1469h131v129h-131v-129z" />
<glyph unicode="&#xf7;" horiz-adv-x="877" d="M-4 381v608q0 78 31 147.5t88.5 121.5t139.5 82t183 30q102 0 183.5 -30t139.5 -82t89 -121.5t31 -147.5v-608q0 -78 -31 -147.5t-89 -121.5t-139.5 -82t-183.5 -30q-101 0 -183 30t-139.5 82t-88.5 121.5t-31 147.5zM250 918h377v108h-377v-108zM373 739h131v129h-131 v-129zM373 1069h131v129h-131v-129z" />
<glyph unicode="&#xf8;" d="M-4 381v608q0 78 31 147.5t88.5 121.5t139.5 82t183 30h308q101 0 183 -30t139.5 -82t88.5 -121.5t31 -147.5v-608q0 -78 -31 -147.5t-88.5 -121.5t-139.5 -82t-183 -30h-308q-101 0 -183 30t-139.5 82t-88.5 121.5t-31 147.5zM313 620l14 -86l65 -64l101 -12h268l103 12 l63 64l14 86v500l-14 83l-63 64l-103 14h-268l-103 -14l-63 -64l-14 -83v-500zM419 640v469l10 56l70 10h258q3 0 8 -1t8 -1zM485 567l350 542v-479l-14 -55l-66 -10h-260q-3 0 -5.5 1t-4.5 1z" />
<glyph unicode="&#xf9;" d="M-4 381v608q0 78 31 147.5t88.5 121.5t139.5 82t183 30h308q101 0 183 -30t139.5 -82t88.5 -121.5t31 -147.5v-608q0 -78 -31 -147.5t-88.5 -121.5t-139.5 -82t-183 -30h-308q-101 0 -183 30t-139.5 82t-88.5 121.5t-31 147.5zM211 1757q0 49 25 86.5t66 63t94.5 38.5 t109.5 13q42 0 80.5 -6t70 -19t54.5 -35t35 -53q34 -107 54.5 -176t31.5 -111.5t14.5 -63.5t3.5 -31q0 -30 -10 -56.5t-27 -48.5t-39 -38.5t-45 -26.5h-274q-11 11 -21 26t-22 35l-158 270q-23 38 -33 71.5t-10 61.5zM320 614l12 -86l65 -63l101 -12h268l102 12l64 63l14 86 v666h-106v-655q-2 -13 -6.5 -28t-8.5 -28l-65 -10h-256l-66 10l-14 60v651h-104v-666zM430 1784l152 -334h69l-100 334h-121z" />
<glyph unicode="&#xfa;" d="M-4 381v608q0 78 31 147.5t88.5 121.5t139.5 82t183 30h308q101 0 183 -30t139.5 -82t88.5 -121.5t31 -147.5v-608q0 -78 -31 -147.5t-88.5 -121.5t-139.5 -82t-183 -30h-308q-101 0 -183 30t-139.5 82t-88.5 121.5t-31 147.5zM320 614l12 -86l65 -63l101 -12h268l102 12 l64 63l14 86v666h-106v-655q-2 -13 -6.5 -28t-8.5 -28l-65 -10h-256l-66 10l-14 60v651h-104v-666zM389 1463q0 10 3 31t14 63.5t31.5 111.5t55.5 176q12 31 35 53t54.5 35t70 19t80.5 6q56 0 109 -13t94.5 -38.5t66.5 -63t25 -86.5q-1 -28 -10.5 -61.5t-32.5 -71.5 l-158 -270q-12 -20 -22 -35t-21 -26h-274q-23 10 -45 26.5t-39 38.5t-27 48.5t-10 56.5zM588 1450h69l152 334h-121z" />
<glyph unicode="&#xfb;" d="M-4 381v608q0 78 31 147.5t88.5 121.5t139.5 82t183 30h308q101 0 183 -30t139.5 -82t88.5 -121.5t31 -147.5v-608q0 -78 -31 -147.5t-88.5 -121.5t-139.5 -82t-183 -30h-308q-101 0 -183 30t-139.5 82t-88.5 121.5t-31 147.5zM272 1456q0 36 14.5 88t38 111.5t52 122.5 t55.5 121q29 51 79 76.5t134 25.5q42 0 75 -7t59 -22.5t46.5 -41t38.5 -62.5q40 -86 72 -162q13 -33 26.5 -67.5t23.5 -66t16.5 -59t6.5 -46.5q0 -102 -69 -156h-607q-31 26 -46 64.5t-15 80.5zM320 614l12 -86l65 -63l101 -12h268l102 12l64 63l14 86v666h-106v-655 q-2 -13 -6.5 -28t-8.5 -28l-65 -10h-256l-66 10l-14 60v651h-104v-666zM465 1467h81l95 292l94 -292h82l-131 338h-90z" />
<glyph unicode="&#xfc;" d="M-4 381v608q0 78 31 147.5t88.5 121.5t139.5 82t183 30h308q101 0 183 -30t139.5 -82t88.5 -121.5t31 -147.5v-608q0 -78 -31 -147.5t-88.5 -121.5t-139.5 -82t-183 -30h-308q-101 0 -183 30t-139.5 82t-88.5 121.5t-31 147.5zM244 1563q0 60 28 114t80.5 95.5 t126.5 65.5t166 24t166.5 -24t127 -65.5t80.5 -95.5t28 -114q0 -79 -34.5 -143t-100.5 -107h-535q-66 43 -99.5 107.5t-33.5 142.5zM320 614l12 -86l65 -63l101 -12h268l102 12l64 63l14 86v666h-106v-655q-2 -13 -6.5 -28t-8.5 -28l-65 -10h-256l-66 10l-14 60v651h-104 v-666zM441 1479h131v129h-131v-129zM703 1479h131v129h-131v-129z" />
<glyph unicode="&#xfd;" d="M-4 381v608q0 78 31 147.5t88.5 121.5t139.5 82t183 30h308q101 0 183 -30t139.5 -82t88.5 -121.5t31 -147.5v-608q0 -78 -31 -147.5t-88.5 -121.5t-139.5 -82t-183 -30h-308q-101 0 -183 30t-139.5 82t-88.5 121.5t-31 147.5zM334 1280l250 -594v-233h106v231l254 596 h-125l-182 -449l-178 449h-125zM383 1463q0 10 3 31t14 63.5t31.5 111.5t55.5 176q12 31 35 53t54.5 35t70 19t80.5 6q56 0 109 -13t94.5 -38.5t66.5 -63t25 -86.5q-1 -28 -10.5 -61.5t-32.5 -71.5l-158 -270q-12 -20 -22 -35t-21 -26h-274q-23 10 -45 26.5t-39 38.5 t-27 48.5t-10 56.5zM582 1450h69l152 334h-121z" />
<glyph unicode="&#xfe;" d="M-4 381v608q0 78 31 147.5t88.5 121.5t139.5 82t183 30h308q101 0 183 -30t139.5 -82t88.5 -121.5t31 -147.5v-608q0 -78 -31 -147.5t-88.5 -121.5t-139.5 -82t-183 -30h-308q-101 0 -183 30t-139.5 82t-88.5 121.5t-31 147.5zM377 453h104v231h269l102 12l64 64l14 86 v127l-14 84l-64 63l-102 15h-269v176h-104v-858zM481 791v237h263l69 -10l10 -60v-102l-14 -55l-65 -10h-263z" />
<glyph unicode="&#xff;" d="M-4 381v608q0 78 31 147.5t88.5 121.5t139.5 82t183 30h308q101 0 183 -30t139.5 -82t88.5 -121.5t31 -147.5v-608q0 -78 -31 -147.5t-88.5 -121.5t-139.5 -82t-183 -30h-308q-101 0 -183 30t-139.5 82t-88.5 121.5t-31 147.5zM238 1563q0 60 28 114t80.5 95.5 t126.5 65.5t166 24t166.5 -24t127 -65.5t80.5 -95.5t28 -114q0 -79 -34.5 -143t-100.5 -107h-535q-66 43 -99.5 107.5t-33.5 142.5zM334 1280l250 -594v-233h106v231l254 596h-125l-182 -449l-178 449h-125zM435 1479h131v129h-131v-129zM697 1479h131v129h-131v-129z" />
<glyph unicode="&#x152;" d="M-4 381v608q0 78 31 147.5t88.5 121.5t139.5 82t183 30h308q101 0 183 -30t139.5 -82t88.5 -121.5t31 -147.5v-608q0 -78 -31 -147.5t-88.5 -121.5t-139.5 -82t-183 -30h-308q-101 0 -183 30t-139.5 82t-88.5 121.5t-31 147.5zM227 614l13 -86l65 -63l101 -12h112l103 12 l32 33v-45h330v106h-285v254h238v105h-240v256h273v106h-316v-47l-32 33l-103 14h-112l-103 -14l-63 -64l-13 -84v-504zM332 629v479l10 55l70 11h100l70 -11l10 -59v-479l-14 -56l-66 -10h-100l-66 10z" />
<glyph unicode="&#x153;" d="M-4 381v608q0 78 31 147.5t88.5 121.5t139.5 82t183 30h308q101 0 183 -30t139.5 -82t88.5 -121.5t31 -147.5v-608q0 -78 -31 -147.5t-88.5 -121.5t-139.5 -82t-183 -30h-308q-101 0 -183 30t-139.5 82t-88.5 121.5t-31 147.5zM227 614l13 -86l65 -63l101 -12h112l103 12 l32 33v-45h330v106h-285v254h238v105h-240v256h273v106h-316v-47l-32 33l-103 14h-112l-103 -14l-63 -64l-13 -84v-504zM332 629v479l10 55l70 11h100l70 -11l10 -59v-479l-14 -56l-66 -10h-100l-66 10z" />
<glyph unicode="&#x178;" d="M-4 381v608q0 78 31 147.5t88.5 121.5t139.5 82t183 30h308q101 0 183 -30t139.5 -82t88.5 -121.5t31 -147.5v-608q0 -78 -31 -147.5t-88.5 -121.5t-139.5 -82t-183 -30h-308q-101 0 -183 30t-139.5 82t-88.5 121.5t-31 147.5zM238 1563q0 60 28 114t80.5 95.5 t126.5 65.5t166 24t166.5 -24t127 -65.5t80.5 -95.5t28 -114q0 -79 -34.5 -143t-100.5 -107h-535q-66 43 -99.5 107.5t-33.5 142.5zM334 1280l250 -594v-233h106v231l254 596h-125l-182 -449l-178 449h-125zM435 1479h131v129h-131v-129zM697 1479h131v129h-131v-129z" />
<glyph unicode="&#x2c6;" horiz-adv-x="729" d="M-4 186q0 36 14.5 88t38 111.5t52 122.5t55.5 121q29 51 79 76.5t134 25.5q42 0 75 -7t59 -22.5t46.5 -41t38.5 -62.5q40 -86 72 -162q13 -33 26.5 -67.5t23.5 -66t16.5 -59t6.5 -46.5q0 -102 -69 -156h-607q-31 26 -46 64.5t-15 80.5zM189 197h81l95 292l94 -292h82 l-131 338h-90z" />
<glyph unicode="&#x2dc;" horiz-adv-x="877" d="M-4 279q0 78 31 147t88.5 121t139.5 82t183 30q102 0 183.5 -30t139.5 -82t89 -121t31 -147q0 -82 -34 -153.5t-97 -125.5h-621q-66 54 -99.5 124t-33.5 155zM201 123h90q8 38 18.5 52.5t24.5 14.5q15 0 34.5 -11t46.5 -24.5t63 -24.5t83 -11q28 0 45 13.5t25.5 33.5 t11 43t2.5 41v33h-90q-14 -45 -24.5 -60.5t-24.5 -15.5q-12 0 -28.5 10t-42 22.5t-62 22.5t-88.5 10q-29 0 -46 -16t-25.5 -38.5t-10.5 -45.5t-2 -37v-12z" />
<glyph unicode="&#x2000;" horiz-adv-x="1000" />
<glyph unicode="&#x2001;" horiz-adv-x="2001" />
<glyph unicode="&#x2002;" horiz-adv-x="1000" />
<glyph unicode="&#x2003;" horiz-adv-x="2001" />
<glyph unicode="&#x2004;" horiz-adv-x="667" />
<glyph unicode="&#x2005;" horiz-adv-x="500" />
<glyph unicode="&#x2006;" horiz-adv-x="333" />
<glyph unicode="&#x2007;" horiz-adv-x="333" />
<glyph unicode="&#x2008;" horiz-adv-x="250" />
<glyph unicode="&#x2009;" horiz-adv-x="400" />
<glyph unicode="&#x200a;" horiz-adv-x="111" />
<glyph unicode="&#x2010;" horiz-adv-x="877" d="M-4 381v608q0 78 31 147.5t88.5 121.5t139.5 82t183 30q102 0 183.5 -30t139.5 -82t89 -121.5t31 -147.5v-608q0 -78 -31 -147.5t-89 -121.5t-139.5 -82t-183.5 -30q-101 0 -183 30t-139.5 82t-88.5 121.5t-31 147.5zM250 918h377v108h-377v-108z" />
<glyph unicode="&#x2011;" horiz-adv-x="877" d="M-4 381v608q0 78 31 147.5t88.5 121.5t139.5 82t183 30q102 0 183.5 -30t139.5 -82t89 -121.5t31 -147.5v-608q0 -78 -31 -147.5t-89 -121.5t-139.5 -82t-183.5 -30q-101 0 -183 30t-139.5 82t-88.5 121.5t-31 147.5zM250 918h377v108h-377v-108z" />
<glyph unicode="&#x2012;" horiz-adv-x="877" d="M-4 381v608q0 78 31 147.5t88.5 121.5t139.5 82t183 30q102 0 183.5 -30t139.5 -82t89 -121.5t31 -147.5v-608q0 -78 -31 -147.5t-89 -121.5t-139.5 -82t-183.5 -30q-101 0 -183 30t-139.5 82t-88.5 121.5t-31 147.5zM250 918h377v108h-377v-108z" />
<glyph unicode="&#x2013;" horiz-adv-x="877" d="M-4 381v608q0 78 31 147.5t88.5 121.5t139.5 82t183 30q102 0 183.5 -30t139.5 -82t89 -121.5t31 -147.5v-608q0 -78 -31 -147.5t-89 -121.5t-139.5 -82t-183.5 -30q-101 0 -183 30t-139.5 82t-88.5 121.5t-31 147.5zM250 918h377v108h-377v-108z" />
<glyph unicode="&#x2014;" horiz-adv-x="877" d="M-4 381v537h885v-537q0 -78 -31 -147.5t-89 -121.5t-139.5 -82t-183.5 -30q-101 0 -183 30t-139.5 82t-88.5 121.5t-31 147.5zM-2 1026q7 72 41 134.5t90.5 109t134.5 73.5t174 27q95 0 173 -27t135 -73.5t91 -109t42 -134.5h-881z" />
<glyph unicode="&#x2018;" horiz-adv-x="877" d="M-4 381v608q0 78 31 147.5t88.5 121.5t139.5 82t183 30q102 0 183.5 -30t139.5 -82t89 -121.5t31 -147.5v-608q0 -78 -31 -147.5t-89 -121.5t-139.5 -82t-183.5 -30q-101 0 -183 30t-139.5 82t-88.5 121.5t-31 147.5zM373 1024h151v129h-65l39 100l-64 29l-61 -129v-129z " />
<glyph unicode="&#x2019;" horiz-adv-x="877" d="M-4 381v608q0 78 31 147.5t88.5 121.5t139.5 82t183 30q102 0 183.5 -30t139.5 -82t89 -121.5t31 -147.5v-608q0 -78 -31 -147.5t-89 -121.5t-139.5 -82t-183.5 -30q-101 0 -183 30t-139.5 82t-88.5 121.5t-31 147.5zM373 1151h65l-39 -100l64 -29l61 129v129h-151v-129z " />
<glyph unicode="&#x201a;" horiz-adv-x="877" d="M-4 381v608q0 78 31 147.5t88.5 121.5t139.5 82t183 30q102 0 183.5 -30t139.5 -82t89 -121.5t31 -147.5v-608q0 -78 -31 -147.5t-89 -121.5t-139.5 -82t-183.5 -30q-101 0 -183 30t-139.5 82t-88.5 121.5t-31 147.5zM373 453h65l-39 -101l64 -28l61 129v129h-151v-129z " />
<glyph unicode="&#x201c;" horiz-adv-x="877" d="M-4 381v608q0 78 31 147.5t88.5 121.5t139.5 82t183 30q102 0 183.5 -30t139.5 -82t89 -121.5t31 -147.5v-608q0 -78 -31 -147.5t-89 -121.5t-139.5 -82t-183.5 -30q-101 0 -183 30t-139.5 82t-88.5 121.5t-31 147.5zM272 1024h152v129h-66l39 100l-63 29l-62 -129v-129z M457 1024h151v129h-65l39 100l-64 29l-61 -129v-129z" />
<glyph unicode="&#x201d;" horiz-adv-x="877" d="M-4 381v608q0 78 31 147.5t88.5 121.5t139.5 82t183 30q102 0 183.5 -30t139.5 -82t89 -121.5t31 -147.5v-608q0 -78 -31 -147.5t-89 -121.5t-139.5 -82t-183.5 -30q-101 0 -183 30t-139.5 82t-88.5 121.5t-31 147.5zM293 1151h65l-38 -100l63 -29l62 129v129h-152v-129z M477 1151h66l-39 -100l63 -29l62 129v129h-152v-129z" />
<glyph unicode="&#x201e;" horiz-adv-x="877" d="M-4 381v608q0 78 31 147.5t88.5 121.5t139.5 82t183 30q102 0 183.5 -30t139.5 -82t89 -121.5t31 -147.5v-608q0 -78 -31 -147.5t-89 -121.5t-139.5 -82t-183.5 -30q-101 0 -183 30t-139.5 82t-88.5 121.5t-31 147.5zM293 453h65l-38 -101l63 -28l62 129v129h-152v-129z M477 453h66l-39 -101l63 -28l62 129v129h-152v-129z" />
<glyph unicode="&#x2022;" d="M-4 381v608q0 78 31 147.5t88.5 121.5t139.5 82t183 30h308q101 0 183 -30t139.5 -82t88.5 -121.5t31 -147.5v-608q0 -78 -31 -147.5t-88.5 -121.5t-139.5 -82t-183 -30h-308q-101 0 -183 30t-139.5 82t-88.5 121.5t-31 147.5zM326 684q0 -39 16 -74t45 -61t71 -41.5 t93 -15.5h156q51 0 93 15.5t71 41.5t45 61t16 74v311q0 39 -16 74.5t-45 61.5t-71 41.5t-93 15.5h-156q-51 0 -93 -15.5t-71 -41.5t-45 -61.5t-16 -74.5v-311z" />
<glyph unicode="&#x2026;" d="M-4 381v608q0 78 31 147.5t88.5 121.5t139.5 82t183 30h308q101 0 183 -30t139.5 -82t88.5 -121.5t31 -147.5v-608q0 -78 -31 -147.5t-88.5 -121.5t-139.5 -82t-183 -30h-308q-101 0 -183 30t-139.5 82t-88.5 121.5t-31 147.5zM262 453h131v129h-131v-129zM516 453h131 v129h-131v-129zM762 453h131v129h-131v-129z" />
<glyph unicode="&#x202f;" horiz-adv-x="400" />
<glyph unicode="&#x2039;" d="M-4 381v608q0 78 31 147.5t88.5 121.5t139.5 82t183 30h308q101 0 183 -30t139.5 -82t88.5 -121.5t31 -147.5v-608q0 -78 -31 -147.5t-88.5 -121.5t-139.5 -82t-183 -30h-308q-101 0 -183 30t-139.5 82t-88.5 121.5t-31 147.5zM451 781l294 -388l61 59l-258 345l258 345 l-61 61l-294 -389v-33z" />
<glyph unicode="&#x203a;" d="M-4 381v608q0 78 31 147.5t88.5 121.5t139.5 82t183 30h308q101 0 183 -30t139.5 -82t88.5 -121.5t31 -147.5v-608q0 -78 -31 -147.5t-88.5 -121.5t-139.5 -82t-183 -30h-308q-101 0 -183 30t-139.5 82t-88.5 121.5t-31 147.5zM462 452l61 -59l274 388v33l-274 389 l-61 -61l239 -345z" />
<glyph unicode="&#x205f;" horiz-adv-x="500" />
<glyph unicode="&#x20ac;" d="M-4 381v608q0 78 31 147.5t88.5 121.5t139.5 82t183 30h308q100 0 181.5 -30.5t139.5 -82.5t89.5 -121t31.5 -147v-608q0 -78 -31 -147.5t-88.5 -121.5t-139.5 -82t-183 -30h-308q-101 0 -183 30t-139.5 82t-88.5 121.5t-31 147.5zM201 736h110v-124l15 -84l65 -63 l101 -12h241l117 14l-25 108l-94 -16h-233l-66 10l-14 60v107h242v94h-242v94h242v94h-242v92l10 55l70 11h229l103 -17l20 107l-117 14h-241l-103 -12l-63 -64l-15 -84v-102h-110v-94h110v-94h-110v-94z" />
<glyph unicode="&#x2122;" d="M-4 381v608q0 78 31 147.5t88.5 121.5t139.5 82t183 30h308q101 0 183 -30t139.5 -82t88.5 -121.5t31 -147.5v-608q0 -78 -31 -147.5t-88.5 -121.5t-139.5 -82t-183 -30h-308q-101 0 -183 30t-139.5 82t-88.5 121.5t-31 147.5zM281 872h80v-223h73v223h82v76h-235v-76z M549 649h74v162l57 -162h57l56 162v-162h75v299h-69l-90 -139l-95 139h-65v-299z" />
<glyph unicode="&#xe000;" horiz-adv-x="1370" d="M0 0v1370h1370v-1370h-1370z" />
</font>
</defs>
</svg>
